<?xml version="1.0" encoding="UTF-8"?>
<svg version="1.1" xmlns="http://www.w3.org/2000/svg" width="752" height="199">
<path d="M0 0 C248.16 0 496.32 0 752 0 C752 65.67 752 131.34 752 199 C503.84 199 255.68 199 0 199 C0 133.33 0 67.66 0 0 Z " fill="#FEAB88" transform="translate(0,0)"/>
<path d="M0 0 C35.97 0 71.94 0 109 0 C109 8.58 109 17.16 109 26 C95.8 26 82.6 26 69 26 C69.33 47.78 69.66 69.56 70 92 C71.32 92.33 72.64 92.66 74 93 C72.35 93 70.7 93 69 93 C69 99.27 69 105.54 69 112 C71.64 112 74.28 112 77 112 C76.9278125 111.02417969 76.855625 110.04835938 76.78125 109.04296875 C76.6884375 107.77066406 76.595625 106.49835938 76.5 105.1875 C76.4071875 103.92292969 76.314375 102.65835938 76.21875 101.35546875 C75.94881497 97.21485815 76.02450863 93.11465563 76.09179688 88.96801758 C76.121828 87.10642754 76.121828 87.10642754 76.15246582 85.20722961 C76.17455538 83.85299674 76.19665023 82.49876396 76.21875 81.14453125 C76.24119135 79.75876397 76.26361131 78.37299635 76.28601074 76.98722839 C76.34498072 73.34253598 76.40424126 69.69784834 76.46356201 66.05316162 C76.52406035 62.33296996 76.58428696 58.61277391 76.64453125 54.89257812 C76.76272639 47.59504725 76.88137552 40.29752396 77 33 C89.54 32.67 102.08 32.34 115 32 C115.33 21.44 115.66 10.88 116 0 C130.34946118 1.10380471 140.49636273 3.53669033 152.47363281 10.82617188 C158.72637484 14.4315219 164.89820311 15.19308065 172 16 C173.48722765 16.17799613 174.974365 16.35674788 176.46142578 16.53613281 C179.78998894 16.93303178 183.11959338 17.31933157 186.45019531 17.69873047 C294.52466582 30.0225755 294.52466582 30.0225755 324 57 C320.05400579 58.3153314 319.14202462 57.34753377 315.4375 55.5625 C288.31255501 43.30199552 258.40343001 38.72867911 229 36 C228.22962402 35.92797363 227.45924805 35.85594727 226.66552734 35.78173828 C200.92877426 33.51632714 172.01499831 32.67138721 147 40 C148.85238281 39.80083984 148.85238281 39.80083984 150.7421875 39.59765625 C200.15827627 34.39285566 252.65931388 35.41599665 300 52 C296.63177994 53.09858977 294.16611146 52.8915174 290.6953125 52.29296875 C289.10396484 52.0309668 289.10396484 52.0309668 287.48046875 51.76367188 C285.31374289 51.39162058 283.1470722 51.01924783 280.98046875 50.64648438 C261.60947305 47.45637391 242.29468193 46.62474052 222.6875 46.6875 C221.00042435 46.68923721 221.00042435 46.68923721 219.27926636 46.69100952 C204.99813337 46.7199758 190.78949759 47.02056636 176.5625 48.3125 C175.88472504 48.37126312 175.20695007 48.43002625 174.50863647 48.49057007 C167.24398397 49.14524232 162.303422 49.89030112 156.32421875 54.2109375 C151.33838415 57.75694874 145.95013319 59.40253206 140.15185547 61.12231445 C124.84662673 65.65504138 124.84662673 65.65504138 113.75 76.5625 C113.24984375 77.32691406 112.7496875 78.09132813 112.234375 78.87890625 C108.28313744 85.66853282 108.94074475 95.44665316 110.90625 102.90234375 C113.508775 110.98518581 116.95807343 118.54118705 121 126 C118.36 126.33 115.72 126.66 113 127 C113.86625 128.57201172 113.86625 128.57201172 114.75 130.17578125 C115.50032804 131.55450902 116.25031008 132.93342514 117 134.3125 C117.3815625 135.00279297 117.763125 135.69308594 118.15625 136.40429688 C121 141.66015625 121 141.66015625 121 145 C115.46704564 144.63779757 110.25114218 143.87591654 104.875 142.5 C89.976469 138.9609515 74.19574656 139.77201796 58.98046875 139.96289062 C57.1888837 139.98519739 55.3971873 140.00147507 53.60546875 140.00585938 C43.84845902 140.05111452 34.69708944 141.69718125 25.1875 143.75 C23.50539429 144.10989014 23.50539429 144.10989014 21.78930664 144.47705078 C12.0128164 146.71468619 2.76040516 149.45663563 -5 156 C-8.56535381 158.33489906 -11.7239196 158.29900935 -15.9375 158.3125 C-17.14277344 158.32925781 -18.34804687 158.34601563 -19.58984375 158.36328125 C-23.88792647 157.90540989 -26.48557823 156.59562401 -29.45703125 153.46484375 C-36.49729371 146.78105028 -50.735611 145.1064295 -60 143 C-60.89460938 142.7834375 -61.78921875 142.566875 -62.7109375 142.34375 C-78.04695777 138.87913412 -94.38277595 139.7598922 -110 140 C-110.85625977 140.01256836 -111.71251953 140.02513672 -112.59472656 140.03808594 C-122.0187737 140.22741694 -130.83766175 141.31765255 -139.98999023 143.62792969 C-144.09572129 144.65897377 -147.76543776 145.20640162 -152 145 C-149.81451989 137.6029904 -146.63585854 131.21773307 -142.875 124.5 C-142.32457031 123.4996875 -141.77414063 122.499375 -141.20703125 121.46875 C-137.17201748 114.17201748 -137.17201748 114.17201748 -136 113 C-134.48530552 112.76807135 -132.96245438 112.58784762 -131.4375 112.4375 C-130.61121094 112.35371094 -129.78492188 112.26992187 -128.93359375 112.18359375 C-128.29550781 112.12300781 -127.65742187 112.06242187 -127 112 C-128.00865248 119.81705676 -132.47155142 127.06911886 -136 134 C-135.154375 133.79503906 -134.30875 133.59007812 -133.4375 133.37890625 C-132.303125 133.10949219 -131.16875 132.84007812 -130 132.5625 C-128.88625 132.29566406 -127.7725 132.02882812 -126.625 131.75390625 C-98.01956713 125.80471601 -52.14408321 128.31562717 -26.90673828 144.328125 C-25.25387452 145.52863966 -23.6249395 146.76195086 -22 148 C-17.35601989 149.54799337 -12.67482292 149.49594333 -8 148 C-8 147.34 -8 146.68 -8 146 C-1.55179294 142.4483916 4.85175951 139.94068536 11.921875 137.89453125 C13.88947832 137.32272775 15.84430972 136.70352313 17.77758789 136.0246582 C45.32145426 127.26629718 76.88286795 128.10046835 105 133 C104.01 131.02 103.02 129.04 102 127 C93.75 126.67 85.5 126.34 77 126 C77 122.7 77 119.4 77 116 C74.36 116 71.72 116 69 116 C69 119.3 69 122.6 69 126 C59.1 126 49.2 126 39 126 C39 124.02 39 122.04 39 120 C21.80202176 125.56067963 5.96704737 131.6062171 -9 142 C-9.66 141.67 -10.32 141.34 -11 141 C-4.03368559 134.0705444 3.43350107 129.64425227 12 125 C13.17475545 124.30124554 14.34923376 123.60202492 15.5234375 122.90234375 C18.84085454 121.08708296 21.88450989 119.88749403 25.5 118.8125 C26.5621875 118.48894531 27.624375 118.16539062 28.71875 117.83203125 C32 117 32 117 39 116 C39 110.39 39 104.78 39 99 C36.628125 99.886875 34.25625 100.77375 31.8125 101.6875 C31.07491455 101.95522217 30.3373291 102.22294434 29.57739258 102.4987793 C23.39693709 104.89334065 19.85207781 108.88420335 15.6875 113.9375 C10.46107932 119.90414336 5.38326567 123.58051687 -2.0625 126.375 C-8.02554643 128.68010667 -11.35155166 131.82280042 -15 137 C-18.10768178 135.65993188 -18.87293948 135.23379135 -20.5625 132.125 C-23.66617253 128.14593265 -26.30776163 127.63413706 -30.98828125 126.109375 C-39.93309769 122.81452692 -47.1495598 117.25184952 -52 109 C-52.10054688 108.29230469 -52.20109375 107.58460937 -52.3046875 106.85546875 C-52.53414063 106.24316406 -52.76359375 105.63085938 -53 105 C-55.59597107 103.81668747 -55.59597107 103.81668747 -59 103 C-60.512715 102.51624352 -62.02297982 102.02478526 -63.53125 101.52734375 C-65.18731666 100.99682319 -66.84357081 100.46688756 -68.5 99.9375 C-69.32886719 99.66873047 -70.15773438 99.39996094 -71.01171875 99.12304688 C-75.32850718 97.74702767 -79.49040705 96.59298219 -84 96 C-83.69201674 97.48011371 -83.378482 98.95907325 -83.0625 100.4375 C-82.80146484 101.67306641 -82.80146484 101.67306641 -82.53515625 102.93359375 C-82.19247006 104.97661204 -82.19247006 104.97661204 -81 106 C-79.58620481 106.09931619 -78.16727151 106.12969295 -76.75 106.125 C-75.98171875 106.12757812 -75.2134375 106.13015625 -74.421875 106.1328125 C-71.86838406 105.99278235 -69.49301385 105.5569499 -67 105 C-66.93425781 105.72445312 -66.86851563 106.44890625 -66.80078125 107.1953125 C-66.24804183 110.51174902 -65.5725818 113.01538794 -64 116 C-59.96890912 118.83095129 -55.63013063 120.3826256 -51 122 C-49.22586311 122.67892948 -47.45462664 123.36552769 -45.6875 124.0625 C-44.88828125 124.37703125 -44.0890625 124.6915625 -43.265625 125.015625 C-36.08672654 128.13473261 -30.05993517 133.13241318 -24 138 C-24.66 138.33 -25.32 138.66 -26 139 C-28.28348161 137.84027903 -30.43735635 136.63316434 -32.625 135.3125 C-33.90155154 134.56375187 -35.17889027 133.81634415 -36.45703125 133.0703125 C-37.07143066 132.70969727 -37.68583008 132.34908203 -38.31884766 131.97753906 C-44.31258868 128.49236058 -50.34360204 125.940931 -57 124 C-58.5159375 123.5359375 -58.5159375 123.5359375 -60.0625 123.0625 C-63.75544601 122.98392668 -65.68848308 124.19610362 -68.87109375 125.94140625 C-75.96747795 129.47006702 -85.02102333 130.36057708 -92.64453125 128.27734375 C-99.17612049 125.85859931 -104.07487961 122.88768059 -108 117 C-111.12557959 116.63469768 -111.12557959 116.63469768 -114.625 116.8125 C-115.81351563 116.83957031 -117.00203125 116.86664063 -118.2265625 116.89453125 C-119.59941406 116.94673828 -119.59941406 116.94673828 -121 117 C-120.67 115.68 -120.34 114.36 -120 113 C-121.98 112.67 -123.96 112.34 -126 112 C-126 111.67 -126 111.34 -126 111 C-123.36 111 -120.72 111 -118 111 C-117.773125 110.154375 -117.54625 109.30875 -117.3125 108.4375 C-116.1692375 105.44324106 -115.40572304 104.16551035 -113.44848633 101.82006836 C-110.46238678 97.71696115 -110.34151476 94.39671688 -110.51171875 89.44140625 C-110.52233086 88.25767677 -110.52233086 88.25767677 -110.53315735 87.05003357 C-110.56093295 84.55318503 -110.62363187 82.05865944 -110.6875 79.5625 C-110.71260498 77.86005865 -110.73541428 76.15758181 -110.75585938 74.45507812 C-110.81070329 70.30250347 -110.89685159 66.15164422 -111 62 C-114.96 61.67 -118.92 61.34 -123 61 C-123 54.73 -123 48.46 -123 42 C-118.71 42 -114.42 42 -110 42 C-110 34.41 -110 26.82 -110 19 C-101.42 19 -92.84 19 -84 19 C-84 26.26 -84 33.52 -84 41 C-78.39 41 -72.78 41 -67 41 C-67 47.93 -67 54.86 -67 62 C-72.61 62 -78.22 62 -84 62 C-83.505 76.355 -83.505 76.355 -83 91 C-74.86317079 93.26090967 -74.86317079 93.26090967 -66.72509766 95.51733398 C-65.71495605 95.79907471 -64.70481445 96.08081543 -63.6640625 96.37109375 C-62.62717285 96.65911865 -61.5902832 96.94714355 -60.52197266 97.24389648 C-58 98 -58 98 -56 99 C-56.495 97.2675 -56.495 97.2675 -57 95.5 C-60.02733269 83.19605501 -56.25082335 72.64202676 -50 62 C-47.6875 59.1875 -47.6875 59.1875 -45 57 C-44.38769531 56.43796875 -43.77539062 55.8759375 -43.14453125 55.296875 C-34.4501158 47.75854758 -24.43171994 45.31234652 -13.06640625 45.75 C-1.56637183 46.68758242 6.15716447 50.30929035 14 59 C14.49242187 59.52335937 14.98484375 60.04671875 15.4921875 60.5859375 C21.74056932 67.45604885 25.15826928 74.46826219 25.09765625 83.86328125 C25.09443359 84.74951172 25.09121094 85.63574219 25.08789062 86.54882812 C25.07951172 87.46083984 25.07113281 88.37285156 25.0625 89.3125 C25.05798828 90.24384766 25.05347656 91.17519531 25.04882812 92.13476562 C25.03709234 94.42324373 25.02067363 96.71158808 25 99 C26.010625 98.525625 27.02125 98.05125 28.0625 97.5625 C31.87314031 95.7738321 34.42661664 95.65334048 39 95 C39 72.23 39 49.46 39 26 C26.13 26 13.26 26 0 26 C0 17.42 0 8.84 0 0 Z " fill="#1E3F60" transform="translate(176,18)"/>
<path d="M0 0 C14.34946118 1.10380471 24.49636273 3.53669033 36.47363281 10.82617188 C42.72637484 14.4315219 48.89820311 15.19308065 56 16 C57.48722765 16.17799613 58.974365 16.35674788 60.46142578 16.53613281 C63.78998894 16.93303178 67.11959338 17.31933157 70.45019531 17.69873047 C178.52466582 30.0225755 178.52466582 30.0225755 208 57 C204.05400579 58.3153314 203.14202462 57.34753377 199.4375 55.5625 C172.31255501 43.30199552 142.40343001 38.72867911 113 36 C112.22962402 35.92797363 111.45924805 35.85594727 110.66552734 35.78173828 C84.92877426 33.51632714 56.01499831 32.67138721 31 40 C32.85238281 39.80083984 32.85238281 39.80083984 34.7421875 39.59765625 C84.15827627 34.39285566 136.65931388 35.41599665 184 52 C180.63177994 53.09858977 178.16611146 52.8915174 174.6953125 52.29296875 C173.10396484 52.0309668 173.10396484 52.0309668 171.48046875 51.76367188 C169.31374289 51.39162058 167.1470722 51.01924783 164.98046875 50.64648438 C145.60947305 47.45637391 126.29468193 46.62474052 106.6875 46.6875 C105.00042435 46.68923721 105.00042435 46.68923721 103.27926636 46.69100952 C88.99813337 46.7199758 74.78949759 47.02056636 60.5625 48.3125 C59.88472504 48.37126312 59.20695007 48.43002625 58.50863647 48.49057007 C51.24398397 49.14524232 46.303422 49.89030112 40.32421875 54.2109375 C35.33838415 57.75694874 29.95013319 59.40253206 24.15185547 61.12231445 C8.84662673 65.65504138 8.84662673 65.65504138 -2.25 76.5625 C-2.75015625 77.32691406 -3.2503125 78.09132813 -3.765625 78.87890625 C-7.71686256 85.66853282 -7.05925525 95.44665316 -5.09375 102.90234375 C-2.491225 110.98518581 0.95807343 118.54118705 5 126 C2.36 126.33 -0.28 126.66 -3 127 C-2.13375 128.57201172 -2.13375 128.57201172 -1.25 130.17578125 C-0.49967196 131.55450902 0.25031008 132.93342514 1 134.3125 C1.3815625 135.00279297 1.763125 135.69308594 2.15625 136.40429688 C5 141.66015625 5 141.66015625 5 145 C-0.53295436 144.63779757 -5.74885782 143.87591654 -11.125 142.5 C-26.023531 138.9609515 -41.80425344 139.77201796 -57.01953125 139.96289062 C-58.8111163 139.98519739 -60.6028127 140.00147507 -62.39453125 140.00585938 C-72.15154098 140.05111452 -81.30291056 141.69718125 -90.8125 143.75 C-92.49460571 144.10989014 -92.49460571 144.10989014 -94.21069336 144.47705078 C-103.9871836 146.71468619 -113.23959484 149.45663563 -121 156 C-124.56535381 158.33489906 -127.7239196 158.29900935 -131.9375 158.3125 C-133.14277344 158.32925781 -134.34804687 158.34601563 -135.58984375 158.36328125 C-139.88792647 157.90540989 -142.48557823 156.59562401 -145.45703125 153.46484375 C-152.49729371 146.78105028 -166.735611 145.1064295 -176 143 C-176.89460938 142.7834375 -177.78921875 142.566875 -178.7109375 142.34375 C-194.04695777 138.87913412 -210.38277595 139.7598922 -226 140 C-226.85625977 140.01256836 -227.71251953 140.02513672 -228.59472656 140.03808594 C-238.0187737 140.22741694 -246.83766175 141.31765255 -255.98999023 143.62792969 C-260.09572129 144.65897377 -263.76543776 145.20640162 -268 145 C-265.81451989 137.6029904 -262.63585854 131.21773307 -258.875 124.5 C-258.32457031 123.4996875 -257.77414062 122.499375 -257.20703125 121.46875 C-253.17201748 114.17201748 -253.17201748 114.17201748 -252 113 C-250.48530552 112.76807135 -248.96245438 112.58784762 -247.4375 112.4375 C-246.61121094 112.35371094 -245.78492188 112.26992187 -244.93359375 112.18359375 C-244.29550781 112.12300781 -243.65742188 112.06242187 -243 112 C-244.00865248 119.81705676 -248.47155142 127.06911886 -252 134 C-251.154375 133.79503906 -250.30875 133.59007812 -249.4375 133.37890625 C-248.303125 133.10949219 -247.16875 132.84007812 -246 132.5625 C-244.88625 132.29566406 -243.7725 132.02882812 -242.625 131.75390625 C-214.01956713 125.80471601 -168.14408321 128.31562717 -142.90673828 144.328125 C-141.25387452 145.52863966 -139.6249395 146.76195086 -138 148 C-133.35601989 149.54799337 -128.67482292 149.49594333 -124 148 C-124 147.34 -124 146.68 -124 146 C-117.55179294 142.4483916 -111.14824049 139.94068536 -104.078125 137.89453125 C-102.11052168 137.32272775 -100.15569028 136.70352313 -98.22241211 136.0246582 C-70.67854574 127.26629718 -39.11713205 128.10046835 -11 133 C-11.99 131.02 -12.98 129.04 -14 127 C-22.25 126.67 -30.5 126.34 -39 126 C-39.14291379 122.0673187 -39.28550027 118.13462767 -39.42724609 114.2019043 C-39.49930096 112.20685496 -39.57191337 110.21182579 -39.64453125 108.21679688 C-39.68964844 106.96318359 -39.73476562 105.70957031 -39.78125 104.41796875 C-39.8440918 102.68196411 -39.8440918 102.68196411 -39.90820312 100.91088867 C-40.03387259 96.92589668 -39.97288028 92.95374718 -39.90820312 88.96801758 C-39.878172 87.10642754 -39.878172 87.10642754 -39.84753418 85.20722961 C-39.82544462 83.85299674 -39.80334977 82.49876396 -39.78125 81.14453125 C-39.75880865 79.75876397 -39.73638869 78.37299635 -39.71398926 76.98722839 C-39.65501928 73.34253598 -39.59575874 69.69784834 -39.53643799 66.05316162 C-39.47593965 62.33296996 -39.41571304 58.61277391 -39.35546875 54.89257812 C-39.23727361 47.59504725 -39.11862448 40.29752396 -39 33 C-26.46 32.67 -13.92 32.34 -1 32 C-0.67 21.44 -0.34 10.88 0 0 Z " fill="#006A18" transform="translate(292,18)"/>
<path d="M0 0 C7.74592497 5.56780898 12.20246107 13.23238322 15.1875 22.1875 C16.4593497 33.59078882 14.78850624 41.58164815 8.1875 51.1875 C1.6710589 58.42552317 -5.86322468 63.56504061 -15.6953125 64.59375 C-26.73566663 64.99934047 -34.62148008 63.25033707 -43.40625 56.06640625 C-50.05496182 49.8386356 -54.45530135 43.08814686 -55.015625 33.83203125 C-55.16664508 21.48613931 -53.46949497 13.39921504 -44.8125 4.1875 C-32.18890509 -7.89742574 -14.78790736 -9.31271521 0 0 Z " fill="#F3F4D4" transform="translate(179.8125,75.8125)"/>
<path d="M0 0 C10.62132701 0.27490493 21.82141115 3.64913435 31 9 C32.50390625 10.8671875 32.50390625 10.8671875 33.5625 12.875 C38.53926721 21.47837045 46.27130066 26.96686769 55.6875 29.875 C61.43900221 31.76524089 64.03271533 34.84168234 67 40 C70.10092693 38.66915821 71.56263428 37.45984243 73.4375 34.6875 C76.29303114 31.16688312 78.98525166 30.06328763 83.25 28.625 C91.89851549 25.61724946 97.89455374 20.38668427 102.875 12.75 C107.38593583 6.2744159 115.63753501 4.472493 123 3 C123 8.61 123 14.22 123 20 C117.43359375 21.85546875 117.43359375 21.85546875 111.8671875 23.7109375 C111.20775146 23.93257568 110.54831543 24.15421387 109.86889648 24.38256836 C108.26278391 24.91318347 106.64591151 25.4110308 105.02734375 25.90234375 C101.06008353 27.34079552 97.41015269 29.21003484 93.6875 31.1875 C92.93927979 31.58388672 92.19105957 31.98027344 91.42016602 32.38867188 C85.87869562 35.38776933 80.57774465 38.61788547 76 43 C76 43.33 76 43.66 76 44 C76.99 43.39671875 77.98 42.7934375 79 42.171875 C80.33323583 41.36442232 81.66657472 40.55713978 83 39.75 C83.64839844 39.35425781 84.29679688 38.95851562 84.96484375 38.55078125 C92.78458411 33.82796777 100.61310902 30.23575015 109.25 27.25 C110.13429687 26.93417969 111.01859375 26.61835938 111.9296875 26.29296875 C112.78304687 25.99519531 113.63640625 25.69742188 114.515625 25.390625 C115.66466309 24.9889209 115.66466309 24.9889209 116.83691406 24.57910156 C119 24 119 24 123 24 C123 25.98 123 27.96 123 30 C132.9 30 142.8 30 153 30 C153 26.7 153 23.4 153 20 C155.64 20 158.28 20 161 20 C161 23.3 161 26.6 161 30 C161.74161377 29.97905273 162.48322754 29.95810547 163.24731445 29.93652344 C166.6022388 29.85345863 169.95694707 29.80136986 173.3125 29.75 C174.47974609 29.71648437 175.64699219 29.68296875 176.84960938 29.6484375 C178.52700195 29.62910156 178.52700195 29.62910156 180.23828125 29.609375 C181.26993408 29.58842773 182.30158691 29.56748047 183.36450195 29.54589844 C186 30 186 30 187.86010742 31.83691406 C189 34 189 34 189 37 C187.08329274 36.85470122 185.16663703 36.70872231 183.25 36.5625 C182.18265625 36.48128906 181.1153125 36.40007812 180.015625 36.31640625 C177.77514433 36.14533216 175.53766842 35.95803066 173.29980469 35.75488281 C155.40799284 34.15813073 137.93195427 34.44563182 120.1875 37.1875 C118.23312012 37.48164795 118.23312012 37.48164795 116.23925781 37.78173828 C107.34212445 39.26307802 99.40159973 41.770446 91 45 C88.00942233 46.02957774 85.00596957 47.01645168 82 48 C80.824375 48.391875 79.64875 48.78375 78.4375 49.1875 C77.2309375 49.5896875 77.2309375 49.5896875 76 50 C76 50.66 76 51.32 76 52 C72.29627833 54.37038187 69.32878264 54.49674555 65 54 C62.68955582 52.92207902 60.55079046 51.66820404 58.36328125 50.359375 C45.68276917 43.06546062 30.25785787 39.37334763 15.9375 37.1875 C14.91926651 37.03015381 14.91926651 37.03015381 13.88046265 36.86962891 C-8.15316508 33.53111332 -30.07926857 33.93522861 -52 38 C-50.14665766 30.14595398 -46.12994189 22.88323649 -42 16 C-39.69 16 -37.38 16 -35 16 C-35.99 18.475 -35.99 18.475 -37 21 C-36.13117187 20.84660156 -35.26234375 20.69320312 -34.3671875 20.53515625 C-25.03330576 19.27184563 -25.03330576 19.27184563 -22.08203125 21.3515625 C-21.14477206 22.58548916 -20.24868646 23.85168606 -19.39453125 25.14453125 C-16.31946913 29.23600046 -10.88696396 31.00762801 -6 32 C2.0856294 32.76168973 11.61460298 31.94892051 18.48046875 27.33203125 C21.81458714 25.5693423 23.40157121 26.03949985 27 27 C35.83148766 29.76949748 43.81909503 33.86534345 51.8828125 38.328125 C54.90517375 40.06268003 54.90517375 40.06268003 58 41 C47.9766415 33.3205067 38.19646429 28.2430978 26.35668945 24.05419922 C21.20650372 22.20650372 21.20650372 22.20650372 19 20 C17.70293009 16.10879026 17 13.12193682 17 9 C16.0409375 9.495 16.0409375 9.495 15.0625 10 C10.98032763 11.33295424 7.25520527 11.64770947 3 11 C0.9375 9.4375 0.9375 9.4375 0 7 C-0.1875 3.25 -0.1875 3.25 0 0 Z " fill="#F8F8D6" transform="translate(92,114)"/>
<path d="M0 0 C-1.00865248 7.81705676 -5.47155142 15.06911886 -9 22 C-8.154375 21.79503906 -7.30875 21.59007812 -6.4375 21.37890625 C-5.303125 21.10949219 -4.16875 20.84007812 -3 20.5625 C-1.88625 20.29566406 -0.7725 20.02882812 0.375 19.75390625 C28.98043287 13.80471601 74.85591679 16.31562717 100.09326172 32.328125 C101.74612548 33.52863966 103.3750605 34.76195086 105 36 C109.64398011 37.54799337 114.32517708 37.49594333 119 36 C119 35.34 119 34.68 119 34 C125.44820706 30.4483916 131.85175951 27.94068536 138.921875 25.89453125 C140.88947832 25.32272775 142.84430972 24.70352313 144.77758789 24.0246582 C172.32145426 15.26629718 203.88286795 16.10046835 232 21 C231.01 18.69 230.02 16.38 229 14 C232.39880571 13.6497414 235.61032136 13.50734528 239 14 C241.3125 16.375 241.3125 16.375 243 20 C243.66322266 21.24716797 243.66322266 21.24716797 244.33984375 22.51953125 C248 29.44442521 248 29.44442521 248 33 C242.46704564 32.63779757 237.25114218 31.87591654 231.875 30.5 C216.976469 26.9609515 201.19574656 27.77201796 185.98046875 27.96289062 C184.1888837 27.98519739 182.3971873 28.00147507 180.60546875 28.00585938 C170.84845902 28.05111452 161.69708944 29.69718125 152.1875 31.75 C151.06609619 31.98992676 149.94469238 32.22985352 148.78930664 32.47705078 C139.0128164 34.71468619 129.76040516 37.45663563 122 44 C118.43464619 46.33489906 115.2760804 46.29900935 111.0625 46.3125 C109.85722656 46.32925781 108.65195313 46.34601563 107.41015625 46.36328125 C103.11207353 45.90540989 100.51442177 44.59562401 97.54296875 41.46484375 C90.50270629 34.78105028 76.264389 33.1064295 67 31 C66.10539062 30.7834375 65.21078125 30.566875 64.2890625 30.34375 C48.95304223 26.87913412 32.61722405 27.7598922 17 28 C15.71561035 28.01885254 15.71561035 28.01885254 14.40527344 28.03808594 C4.9812263 28.22741694 -3.83766175 29.31765255 -12.98999023 31.62792969 C-17.09572129 32.65897377 -20.76543776 33.20640162 -25 33 C-22.81451989 25.6029904 -19.63585854 19.21773307 -15.875 12.5 C-15.32457031 11.4996875 -14.77414063 10.499375 -14.20703125 9.46875 C-10.17201748 2.17201748 -10.17201748 2.17201748 -9 1 C-2.88888889 0 -2.88888889 0 0 0 Z " fill="#224262" transform="translate(49,130)"/>
<path d="M0 0 C0.97710938 -0.04898438 1.95421875 -0.09796875 2.9609375 -0.1484375 C5.625 0.375 5.625 0.375 7.21484375 2.34765625 C7.68019531 3.34667969 8.14554688 4.34570312 8.625 5.375 C8.94694336 6.03661133 9.26888672 6.69822266 9.60058594 7.37988281 C10.69532812 9.63847715 11.75695448 11.91034665 12.8125 14.1875 C13.18052734 14.97576172 13.54855469 15.76402344 13.92773438 16.57617188 C14.82924721 18.5079851 15.72745726 20.44133903 16.625 22.375 C19.74842617 18.72622692 21.36421579 14.63372419 23.1875 10.25 C26.35906677 2.64093323 26.35906677 2.64093323 28.625 0.375 C31.19140625 0.14453125 31.19140625 0.14453125 34.1875 0.1875 C35.67443359 0.19716797 35.67443359 0.19716797 37.19140625 0.20703125 C39.625 0.375 39.625 0.375 40.625 1.375 C40.72295311 2.75109882 40.75298088 4.13213882 40.75439453 5.51171875 C40.75754669 6.38932861 40.76069885 7.26693848 40.76394653 8.17114258 C40.7619223 9.12529053 40.75989807 10.07943848 40.7578125 11.0625 C40.75876923 12.03533936 40.75972595 13.00817871 40.76071167 14.01049805 C40.76139358 16.071778 40.75953853 18.13306008 40.75537109 20.19433594 C40.750023 23.36137688 40.75531572 26.528276 40.76171875 29.6953125 C40.76105797 31.69270865 40.75977681 33.69010471 40.7578125 35.6875 C40.75983673 36.64164795 40.76186096 37.5957959 40.76394653 38.57885742 C40.75921829 39.89527222 40.75921829 39.89527222 40.75439453 41.23828125 C40.75359894 42.01469971 40.75280334 42.79111816 40.75198364 43.59106445 C40.625 45.375 40.625 45.375 39.625 46.375 C37.8125 46.5078125 37.8125 46.5078125 35.625 46.5 C34.903125 46.50257813 34.18125 46.50515625 33.4375 46.5078125 C31.625 46.375 31.625 46.375 30.625 45.375 C30.46735595 43.59630274 30.37399323 41.81181524 30.30859375 40.02734375 C30.26669922 38.94775391 30.22480469 37.86816406 30.18164062 36.75585938 C30.14232422 35.61955078 30.10300781 34.48324219 30.0625 33.3125 C30.01931641 32.17232422 29.97613281 31.03214844 29.93164062 29.85742188 C29.82517161 27.03007805 29.72315793 24.20264262 29.625 21.375 C29.37331055 22.00067871 29.12162109 22.62635742 28.86230469 23.27099609 C27.71383209 26.10322846 26.54474031 28.92648892 25.375 31.75 C24.97925781 32.73484375 24.58351563 33.7196875 24.17578125 34.734375 C23.78261719 35.67539063 23.38945313 36.61640625 22.984375 37.5859375 C22.45021973 38.88990479 22.45021973 38.88990479 21.90527344 40.22021484 C20.4334703 42.69735719 19.28204064 43.37003075 16.625 44.375 C12.17515758 37.70023637 8.87455211 30.7004508 5.625 23.375 C5.56965088 24.0362085 5.51430176 24.69741699 5.45727539 25.37866211 C5.20534285 28.3570238 4.94651498 31.33474625 4.6875 34.3125 C4.60048828 35.35341797 4.51347656 36.39433594 4.42382812 37.46679688 C4.29331055 38.95083008 4.29331055 38.95083008 4.16015625 40.46484375 C4.081604 41.38128662 4.00305176 42.29772949 3.92211914 43.24194336 C3.625 45.375 3.625 45.375 2.625 46.375 C0.8125 46.5078125 0.8125 46.5078125 -1.375 46.5 C-2.096875 46.50257813 -2.81875 46.50515625 -3.5625 46.5078125 C-5.375 46.375 -5.375 46.375 -6.375 45.375 C-6.47295311 43.99890118 -6.50298088 42.61786118 -6.50439453 41.23828125 C-6.50754669 40.36067139 -6.51069885 39.48306152 -6.51394653 38.57885742 C-6.5119223 37.62470947 -6.50989807 36.67056152 -6.5078125 35.6875 C-6.50876923 34.71466064 -6.50972595 33.74182129 -6.51071167 32.73950195 C-6.51139358 30.678222 -6.50953853 28.61693992 -6.50537109 26.55566406 C-6.500023 23.38862312 -6.50531572 20.221724 -6.51171875 17.0546875 C-6.51105797 15.05729135 -6.50977681 13.05989529 -6.5078125 11.0625 C-6.50983673 10.10835205 -6.51186096 9.1542041 -6.51394653 8.17114258 C-6.51079437 7.29353271 -6.50764221 6.41592285 -6.50439453 5.51171875 C-6.50359894 4.73530029 -6.50280334 3.95888184 -6.50198364 3.15893555 C-6.22813011 -0.68830835 -3.23421406 0.11035376 0 0 Z " fill="#157021" transform="translate(567.375,97.625)"/>
<path d="M0 0 C1.71896484 -0.0309375 1.71896484 -0.0309375 3.47265625 -0.0625 C4.57996094 -0.06765625 5.68726563 -0.0728125 6.828125 -0.078125 C7.84293945 -0.0874707 8.85775391 -0.09681641 9.90332031 -0.10644531 C14.34072542 0.44918174 16.92417317 2.41849739 20.0234375 5.5390625 C23.12432113 10.40787074 22.71124046 15.69540335 21.75 21.25 C20.34042956 23.42244236 18.82958234 24.99112026 16.96875 26.77734375 C16.36546875 27.50630859 16.36546875 27.50630859 15.75 28.25 C16.22282393 32.03259142 17.98133462 34.65027997 19.875 37.875 C21.75 41.25 21.75 41.25 21.75 45.25 C18.59315091 45.81823284 15.88620199 46.00207454 12.75 45.25 C8.56887093 41.22664939 6.17788112 35.81873638 4.75 30.25 C2.11 30.25 -0.53 30.25 -3.25 30.25 C-3.23839844 31.24902344 -3.22679687 32.24804688 -3.21484375 33.27734375 C-3.20582031 34.56769531 -3.19679688 35.85804688 -3.1875 37.1875 C-3.17589844 38.47527344 -3.16429687 39.76304687 -3.15234375 41.08984375 C-3.25 44.25 -3.25 44.25 -4.25 45.25 C-6.0625 45.3828125 -6.0625 45.3828125 -8.25 45.375 C-8.971875 45.37757813 -9.69375 45.38015625 -10.4375 45.3828125 C-12.25 45.25 -12.25 45.25 -13.25 44.25 C-13.34785341 42.90455673 -13.37797985 41.55407437 -13.37939453 40.20507812 C-13.38254669 39.34748901 -13.38569885 38.4898999 -13.38894653 37.60632324 C-13.3869223 36.67404907 -13.38489807 35.7417749 -13.3828125 34.78125 C-13.38376923 33.83060669 -13.38472595 32.87996338 -13.38571167 31.9005127 C-13.38639357 29.88631118 -13.38453862 27.87210748 -13.38037109 25.85791016 C-13.37502298 22.76329645 -13.38031577 19.6688279 -13.38671875 16.57421875 C-13.38605797 14.62239551 -13.38477681 12.67057236 -13.3828125 10.71875 C-13.38483673 9.78647583 -13.38686096 8.85420166 -13.38894653 7.89367676 C-13.38579437 7.03608765 -13.38264221 6.17849854 -13.37939453 5.29492188 C-13.37859894 4.53626831 -13.37780334 3.77761475 -13.37698364 2.99597168 C-13.01055561 -2.04225962 -3.72153298 0.01652179 0 0 Z " fill="#167021" transform="translate(316.25,98.75)"/>
<path d="M0 0 C2.9375 1.5 2.9375 1.5 5 3 C5.66 2.34 6.32 1.68 7 1 C10.5625 0.8125 10.5625 0.8125 14 1 C15.97939766 2.97939766 15.21129916 6.83414756 15.23828125 9.54296875 C15.246353 10.30418533 15.25442474 11.06540192 15.26274109 11.84968567 C15.27660085 13.46625479 15.28731451 15.08285342 15.29516602 16.69946289 C15.31231011 19.16024361 15.35616777 21.61965662 15.40039062 24.08007812 C15.41052348 25.65103179 15.41903773 27.22199688 15.42578125 28.79296875 C15.44328934 29.52444626 15.46079742 30.25592377 15.47883606 31.00956726 C15.45718796 36.16744095 14.23027778 39.02293955 11 43 C6.12042991 47.29866889 1.34362039 48.22825621 -5 48 C-8.30245328 47.47882376 -11.1301769 46.74440228 -14 45 C-15.6875 42 -15.6875 42 -16 39 C-15.34 38.01 -14.68 37.02 -14 36 C-13.01 36.33 -12.02 36.66 -11 37 C-5.12209947 38.66580177 0.4100402 38.7949799 6 36 C6 33.69 6 31.38 6 29 C5.38125 29.825 4.7625 30.65 4.125 31.5 C1.6078689 33.99567828 -0.35855425 34.48916388 -3.875 34.6875 C-8.57413908 34.42838205 -11.29439936 33.16252264 -14.58984375 29.828125 C-18.22060816 25.12120604 -19.28366254 20.78639113 -18.9375 14.875 C-18.16620786 9.41726976 -16.09659768 5.84246463 -11.9375 2.1875 C-7.98027622 -0.23789522 -4.54901583 -0.31372523 0 0 Z " fill="#177022" transform="translate(524,109)"/>
<path d="M0 0 C0.721875 0.00257812 1.44375 0.00515625 2.1875 0.0078125 C2.909375 0.00523438 3.63125 0.00265625 4.375 0 C6.1875 0.1328125 6.1875 0.1328125 7.1875 1.1328125 C7.28545311 2.50891132 7.31548088 3.88995132 7.31689453 5.26953125 C7.32004669 6.14714111 7.32319885 7.02475098 7.32644653 7.92895508 C7.3244223 8.88310303 7.32239807 9.83725098 7.3203125 10.8203125 C7.32126923 11.79315186 7.32222595 12.76599121 7.32321167 13.76831055 C7.32389358 15.8295905 7.32203853 17.89087258 7.31787109 19.95214844 C7.312523 23.11918938 7.31781572 26.2860885 7.32421875 29.453125 C7.32355797 31.45052115 7.32227681 33.44791721 7.3203125 35.4453125 C7.32233673 36.39946045 7.32436096 37.3536084 7.32644653 38.33666992 C7.32171829 39.65308472 7.32171829 39.65308472 7.31689453 40.99609375 C7.31609894 41.77251221 7.31530334 42.54893066 7.31448364 43.34887695 C7.1875 45.1328125 7.1875 45.1328125 6.1875 46.1328125 C-1.33488806 46.37161847 -1.33488806 46.37161847 -3.8125 45.1328125 C-4.34875 45.4421875 -4.885 45.7515625 -5.4375 46.0703125 C-8.88635158 47.61321978 -12.13526769 47.70072483 -15.8125 47.1328125 C-21.54788439 44.26512031 -24.79137258 40.19619475 -26.8125 34.1328125 C-27.34672104 28.16391969 -27.34556722 23.19687552 -23.8125 18.1328125 C-20.34023379 14.72536193 -17.44924208 12.2563402 -12.5 11.8828125 C-8.58262434 12.14839729 -7.02265884 13.03322496 -3.8125 15.1328125 C-3.72162109 13.63427734 -3.72162109 13.63427734 -3.62890625 12.10546875 C-3.54511719 10.81511719 -3.46132813 9.52476563 -3.375 8.1953125 C-3.29378906 6.90753906 -3.21257812 5.61976562 -3.12890625 4.29296875 C-2.71902726 0.19923907 -2.71902726 0.19923907 0 0 Z " fill="#187123" transform="translate(439.8125,96.8671875)"/>
<path d="M0 0 C5.16648551 2.85313379 8.03995091 6.49965945 9.71875 12.15625 C10.03125 16.09375 10.03125 16.09375 9.71875 19.15625 C8.71875 20.15625 8.71875 20.15625 6.49389648 20.26977539 C5.53555908 20.26453857 4.57722168 20.25930176 3.58984375 20.25390625 C2.03813477 20.24907227 2.03813477 20.24907227 0.45507812 20.24414062 C-0.63353516 20.23576172 -1.72214844 20.22738281 -2.84375 20.21875 C-4.4824707 20.21198242 -4.4824707 20.21198242 -6.15429688 20.20507812 C-8.86333495 20.19324826 -11.57226599 20.17676543 -14.28125 20.15625 C-12.9722928 23.27822478 -12.9722928 23.27822478 -10.28125 25.15625 C-6.67596521 25.36032272 -4.00202723 25.46515453 -0.65625 24.03125 C1.71875 23.15625 1.71875 23.15625 4.53125 24.03125 C5.253125 24.4025 5.975 24.77375 6.71875 25.15625 C6.37907174 28.32658042 5.72005809 29.15507607 3.28125 31.34375 C-1.9604764 35.05131258 -6.99512086 34.74866008 -13.28125 34.15625 C-18.26769939 31.75206905 -22.07373392 28.40533966 -24.0390625 23.1171875 C-25.49960353 17.73721992 -25.56800802 13.29332726 -23.28125 8.15625 C-18.20072377 -0.25420915 -9.21460347 -3.40814101 0 0 Z " fill="#197123" transform="translate(696.28125,109.84375)"/>
<path d="M0 0 C5.23462683 3.56906375 8.30528182 7.70211324 9.75 13.875 C9.9375 16.6875 9.9375 16.6875 9.75 18.875 C8.06699331 20.55800669 5.92991273 20.10309077 3.62109375 20.19140625 C2.58662109 20.23330078 1.55214844 20.27519531 0.48632812 20.31835938 C-0.60228516 20.35767578 -1.69089844 20.39699219 -2.8125 20.4375 C-4.4512207 20.50227539 -4.4512207 20.50227539 -6.12304688 20.56835938 C-8.83189564 20.67482068 -11.54083992 20.77683516 -14.25 20.875 C-11.41108696 24.12751822 -11.41108696 24.12751822 -7.375 25.25 C-4.21097367 24.99556522 -4.21097367 24.99556522 -1.25 23.75 C2.45573481 22.66916068 4.26420114 23.3810862 7.75 24.875 C6.02592413 29.26355677 2.92026127 31.78986937 -1.25 33.875 C-7.4617137 34.40279267 -13.008349 34.61903643 -18.25 30.875 C-22.14344585 26.80457933 -25.20344443 23.33757029 -25.28125 17.55078125 C-24.86136149 10.52814593 -22.99560919 6.35274488 -17.6875 1.5625 C-12.30660892 -2.16273229 -6.04005985 -2.09078995 0 0 Z " fill="#197123" transform="translate(366.25,110.125)"/>
<path d="M0 0 C5.32713193 2.77286997 8.12996179 6.71801038 9.99609375 12.31640625 C10.12109375 15.94140625 10.12109375 15.94140625 9.99609375 19.31640625 C8.99609375 20.31640625 8.99609375 20.31640625 6.77124023 20.42993164 C5.81290283 20.42469482 4.85456543 20.41945801 3.8671875 20.4140625 C2.31547852 20.40922852 2.31547852 20.40922852 0.73242188 20.40429688 C-0.35619141 20.39591797 -1.44480469 20.38753906 -2.56640625 20.37890625 C-4.20512695 20.37213867 -4.20512695 20.37213867 -5.87695312 20.36523438 C-8.5859912 20.35340451 -11.29492224 20.33692168 -14.00390625 20.31640625 C-12.69494905 23.43838103 -12.69494905 23.43838103 -10.00390625 25.31640625 C-4.67423417 25.65732666 -4.67423417 25.65732666 -0.00390625 23.31640625 C3.68359375 23.69140625 3.68359375 23.69140625 6.99609375 24.31640625 C6.99609375 25.63640625 6.99609375 26.95640625 6.99609375 28.31640625 C1.44158146 33.50866774 -1.67672539 34.74392214 -9.109375 34.65625 C-14.36882993 34.03874315 -17.85368652 31.66154675 -21.3828125 27.8125 C-24.82837646 22.83023853 -24.86999563 17.15809077 -24.00390625 11.31640625 C-21.64856189 6.42453719 -18.28656045 3.50561683 -14.00390625 0.31640625 C-9.40259088 -1.21736554 -4.65611133 -1.58834207 0 0 Z " fill="#1A7123" transform="translate(637.00390625,109.68359375)"/>
<path d="M0 0 C3.38795887 2.88972962 5.70953643 5.56610928 7.125 9.8125 C7.21817856 11.50061426 7.25569271 13.19212994 7.2578125 14.8828125 C7.25974609 16.35041016 7.25974609 16.35041016 7.26171875 17.84765625 C7.25785156 18.86730469 7.25398438 19.88695312 7.25 20.9375 C7.25580078 22.47857422 7.25580078 22.47857422 7.26171875 24.05078125 C7.26042969 25.02660156 7.25914062 26.00242188 7.2578125 27.0078125 C7.25668457 27.90516113 7.25555664 28.80250977 7.25439453 29.72705078 C7.125 31.8125 7.125 31.8125 6.125 32.8125 C3.44959751 32.85635906 0.7982148 32.85713624 -1.875 32.8125 C-5.6513932 32.5143576 -5.6513932 32.5143576 -7.875 33.8125 C-11.66915519 34.34368173 -15.33831178 34.66339348 -18.765625 32.765625 C-20.9155787 30.99139137 -22.62135623 29.31978754 -23.875 26.8125 C-24.45038625 19.79278769 -24.45038625 19.79278769 -22.1875 15.9375 C-18.54310768 12.58859895 -15.61329768 11.71407139 -10.75 11.625 C-6.875 11.8125 -6.875 11.8125 -3.875 12.8125 C-4.535 11.1625 -5.195 9.5125 -5.875 7.8125 C-10.27595836 7.64323237 -13.00214373 7.80929848 -16.875 9.8125 C-19 9.6875 -19 9.6875 -20.875 8.8125 C-22.125 6.75 -22.125 6.75 -22.875 4.8125 C-16.22972815 -1.07762732 -8.75227415 -3.61506976 0 0 Z " fill="#1B7124" transform="translate(401.875,110.1875)"/>
<path d="M0 0 C3.01665131 1.75917031 5.41424743 3.82849486 7 7 C7.09719073 9.02028352 7.13076517 11.04378731 7.1328125 13.06640625 C7.13410156 14.27361328 7.13539063 15.48082031 7.13671875 16.72460938 C7.13285156 17.99111328 7.12898438 19.25761719 7.125 20.5625 C7.13080078 22.46805664 7.13080078 22.46805664 7.13671875 24.41210938 C7.13542969 25.61802734 7.13414062 26.82394531 7.1328125 28.06640625 C7.13168457 29.17959229 7.13055664 30.29277832 7.12939453 31.43969727 C7 34 7 34 6 35 C4.1875 35.1328125 4.1875 35.1328125 2 35.125 C1.278125 35.12757813 0.55625 35.13015625 -0.1875 35.1328125 C-2 35 -2 35 -3 34 C-3.14530987 32.30571693 -3.22716523 30.60589258 -3.28125 28.90625 C-3.31863281 27.87628906 -3.35601562 26.84632813 -3.39453125 25.78515625 C-3.46484375 23.59505208 -3.53515625 21.40494792 -3.60546875 19.21484375 C-3.64285156 18.18488281 -3.68023437 17.15492187 -3.71875 16.09375 C-3.74904297 15.14177734 -3.77933594 14.18980469 -3.81054688 13.20898438 C-3.75885402 11.02644685 -3.75885402 11.02644685 -5 10 C-9.3409369 10.14158662 -9.3409369 10.14158662 -13 12 C-13.13275205 13.53682435 -13.20328174 15.07914067 -13.24609375 16.62109375 C-13.27896484 17.55630859 -13.31183594 18.49152344 -13.34570312 19.45507812 C-13.40677734 21.43934031 -13.46408455 23.42372211 -13.51757812 25.40820312 C-13.55173828 26.34470703 -13.58589844 27.28121094 -13.62109375 28.24609375 C-13.6461499 29.10904053 -13.67120605 29.9719873 -13.69702148 30.86108398 C-14 33 -14 33 -16 35 C-19.5625 35.1875 -19.5625 35.1875 -23 35 C-24.67673649 33.32326351 -24.12787817 31.27144924 -24.13894653 29.03344727 C-24.1369223 28.34178467 -24.13489807 27.65012207 -24.1328125 26.9375 C-24.13376923 26.23101318 -24.13472595 25.52452637 -24.13571167 24.79663086 C-24.13639333 23.30029207 -24.13454005 21.80395033 -24.13037109 20.30761719 C-24.12502257 18.00969843 -24.13031651 15.71197514 -24.13671875 13.4140625 C-24.13605797 11.96354123 -24.1347768 10.51302009 -24.1328125 9.0625 C-24.13483673 8.3708374 -24.13686096 7.6791748 -24.13894653 6.96655273 C-24.11495224 2.11495224 -24.11495224 2.11495224 -23 1 C-19.5625 0.8125 -19.5625 0.8125 -16 1 C-15.34 1.66 -14.68 2.32 -14 3 C-13.175 2.505 -12.35 2.01 -11.5 1.5 C-7.44985024 -0.23577847 -4.33609977 -0.94825243 0 0 Z " fill="#1B7124" transform="translate(494,109)"/>
<path d="M0 0 C0.721875 0.00257812 1.44375 0.00515625 2.1875 0.0078125 C2.909375 0.00523438 3.63125 0.00265625 4.375 0 C6.1875 0.1328125 6.1875 0.1328125 7.1875 1.1328125 C7.25929964 2.65209288 7.27142007 4.17448732 7.25 5.6953125 C7.24097656 6.52160156 7.23195313 7.34789063 7.22265625 8.19921875 C7.21105469 8.83730469 7.19945312 9.47539063 7.1875 10.1328125 C8.8375 10.1328125 10.4875 10.1328125 12.1875 10.1328125 C14.1875 15.8828125 14.1875 15.8828125 14.1875 18.1328125 C11.8775 18.1328125 9.5675 18.1328125 7.1875 18.1328125 C7.1875 23.4128125 7.1875 28.6928125 7.1875 34.1328125 C9.1675 34.1328125 11.1475 34.1328125 13.1875 34.1328125 C14.1875 35.1328125 14.1875 35.1328125 14.28515625 36.98046875 C14.25260417 39.03125 14.22005208 41.08203125 14.1875 43.1328125 C10.47735899 44.36952617 7.04311242 44.69649853 3.1875 44.1328125 C0.3774654 42.33917339 -1.32190468 41.11400315 -2.8125 38.1328125 C-2.89622659 36.61132924 -2.91980027 35.08625472 -2.91015625 33.5625 C-2.90693359 32.66660156 -2.90371094 31.77070313 -2.90039062 30.84765625 C-2.89201172 29.91050781 -2.88363281 28.97335938 -2.875 28.0078125 C-2.87048828 27.06292969 -2.86597656 26.11804688 -2.86132812 25.14453125 C-2.84952357 22.80722863 -2.83305759 20.47005189 -2.8125 18.1328125 C-4.4625 17.8028125 -6.1125 17.4728125 -7.8125 17.1328125 C-7.8125 15.1528125 -7.8125 13.1728125 -7.8125 11.1328125 C-6.1625 10.8028125 -4.5125 10.4728125 -2.8125 10.1328125 C-2.82410156 9.49472656 -2.83570313 8.85664062 -2.84765625 8.19921875 C-2.85667969 7.37292969 -2.86570312 6.54664062 -2.875 5.6953125 C-2.88660156 4.87160156 -2.89820313 4.04789062 -2.91015625 3.19921875 C-2.78580037 0.56784823 -2.63135505 0.19281481 0 0 Z " fill="#1A7123" transform="translate(655.8125,99.8671875)"/>
<path d="M0 0 C1.91015625 0.23046875 1.91015625 0.23046875 3.91015625 2.23046875 C4.57015625 1.57046875 5.23015625 0.91046875 5.91015625 0.23046875 C9.53515625 0.10546875 9.53515625 0.10546875 12.91015625 0.23046875 C12.91015625 2.54046875 12.91015625 4.85046875 12.91015625 7.23046875 C9.94015625 8.55046875 6.97015625 9.87046875 3.91015625 11.23046875 C3.84957031 12.80699219 3.78898438 14.38351563 3.7265625 16.0078125 C3.64217638 18.06120818 3.55752742 20.11459306 3.47265625 22.16796875 C3.43333984 23.20888672 3.39402344 24.24980469 3.35351562 25.32226562 C3.31162109 26.31162109 3.26972656 27.30097656 3.2265625 28.3203125 C3.17157593 29.69497681 3.17157593 29.69497681 3.11547852 31.09741211 C2.91015625 33.23046875 2.91015625 33.23046875 1.91015625 34.23046875 C0.09765625 34.36328125 0.09765625 34.36328125 -2.08984375 34.35546875 C-2.81171875 34.35804688 -3.53359375 34.360625 -4.27734375 34.36328125 C-6.08984375 34.23046875 -6.08984375 34.23046875 -7.08984375 33.23046875 C-7.19062495 30.86648407 -7.2295759 28.53235564 -7.22265625 26.16796875 C-7.22361298 25.46148193 -7.2245697 24.75499512 -7.22555542 24.02709961 C-7.22623708 22.53076082 -7.2243838 21.03441908 -7.22021484 19.53808594 C-7.21486632 17.24016718 -7.22016026 14.94244389 -7.2265625 12.64453125 C-7.22590172 11.19400998 -7.22462055 9.74348884 -7.22265625 8.29296875 C-7.22468048 7.60130615 -7.22670471 6.90964355 -7.22879028 6.19702148 C-7.19706368 -0.21803761 -6.3507096 0.12678368 0 0 Z " fill="#1C7224" transform="translate(717.08984375,109.76953125)"/>
<path d="M0 0 C2.64 0 5.28 0 8 0 C8 10.56 8 21.12 8 32 C5.36 32 2.72 32 0 32 C0 21.44 0 10.88 0 0 Z " fill="#026B19" transform="translate(455,111)"/>
<path d="M0 0 C2.0078125 0.42578125 2.0078125 0.42578125 3.78515625 2.0859375 C5.35230218 5.08504424 5.13123477 6.8469203 4.6953125 10.17578125 C4.51548828 11.65304688 4.51548828 11.65304688 4.33203125 13.16015625 C4.22503906 13.9078125 4.11804688 14.65546875 4.0078125 15.42578125 C0.1577526 17.09328211 -1.92413538 17.81748329 -5.9921875 16.42578125 C-8.78986516 14.62727418 -9.01667303 13.33133705 -9.8671875 10.05078125 C-10.00587024 6.02898177 -9.39601124 4.56924307 -6.9921875 1.42578125 C-5.12296096 -0.44344529 -2.49467581 0.13347896 0 0 Z " fill="#FBAB87" transform="translate(524.9921875,117.57421875)"/>
<path d="M0 0 C3.35409514 0.55901586 4.61783649 1.10772115 7 3.5 C7.49609375 6.34765625 7.49609375 6.34765625 7.4375 9.5625 C7.43621094 10.62597656 7.43492187 11.68945312 7.43359375 12.78515625 C7.21896484 14.12900391 7.21896484 14.12900391 7 15.5 C3.30513897 17.96324069 1.36706908 17.88991688 -3 17.5 C-5.10358381 15.95737187 -5.84054159 14.81891683 -7 12.5 C-7.38169851 8.45399582 -7.36064827 6.15194111 -5.375 2.5625 C-3 0.5 -3 0.5 0 0 Z " fill="#FCAB87" transform="translate(430,117.5)"/>
<path d="M0 0 C1.93719378 -0.05406122 3.87481921 -0.09282025 5.8125 -0.125 C6.89144531 -0.14820312 7.97039062 -0.17140625 9.08203125 -0.1953125 C12 0 12 0 15 2 C15.3125 5.5 15.3125 5.5 15 9 C13 11 13 11 9.9609375 11.1953125 C8.77757812 11.17210938 7.59421875 11.14890625 6.375 11.125 C5.18648438 11.10695313 3.99796875 11.08890625 2.7734375 11.0703125 C1.85820312 11.04710938 0.94296875 11.02390625 0 11 C0 7.37 0 3.74 0 0 Z " fill="#FDAB88" transform="translate(313,108)"/>
<path d="M0 0 C1.98 0.495 1.98 0.495 4 1 C4.06058594 2.24136719 4.12117187 3.48273438 4.18359375 4.76171875 C4.26803623 6.40365577 4.35268236 8.04558232 4.4375 9.6875 C4.47681641 10.50412109 4.51613281 11.32074219 4.55664062 12.16210938 C4.79762048 18.15467632 4.79762048 18.15467632 6 24 C8.29534258 25.13545562 8.29534258 25.13545562 11 26 C12.70294787 27.28667172 14.37946188 28.61096733 16 30 C15.67 30.99 15.34 31.98 15 33 C11.49371851 31.30947142 8.27361517 29.31590972 5 27.21875 C3.06188355 26.03771029 1.03000496 25.01500248 -1 24 C-0.67 16.08 -0.34 8.16 0 0 Z " fill="#35506B" transform="translate(158,83)"/>
<path d="M0 0 C1.65 0 3.3 0 5 0 C8.38909967 3.84490049 8.32673856 7.34632475 8.1875 12.3125 C8.16042969 13.56675781 8.13335937 14.82101563 8.10546875 16.11328125 C8.07066406 17.06589844 8.03585938 18.01851562 8 19 C5.36 19 2.72 19 0 19 C0 12.73 0 6.46 0 0 Z " fill="#FEFEDA" transform="translate(245,111)"/>
<path d="M0 0 C2.6843436 0.95637675 5.27649693 2.08240964 7.875 3.25 C8.585354 3.56646484 9.29570801 3.88292969 10.02758789 4.20898438 C18.6003348 8.09395666 25.67030961 13.11249406 33 19 C32.01 19.495 32.01 19.495 31 20 C28.71651839 18.84027903 26.56264365 17.63316434 24.375 16.3125 C23.09844846 15.56375187 21.82110973 14.81634415 20.54296875 14.0703125 C19.92856934 13.70969727 19.31416992 13.34908203 18.68115234 12.97753906 C10.57889162 8.26632037 2.36212159 4.99597038 -7 4 C-7.33 2.68 -7.66 1.36 -8 0 C-5.0330176 -1.4834912 -3.21712461 -0.73150397 0 0 Z " fill="#2B4966" transform="translate(119,137)"/>
<path d="M0 0 C2 2 2 2 2.4375 4.9375 C2 8 2 8 -0.1875 10 C-3 11 -3 11 -5.6875 10.3125 C-8 9 -8 9 -10 7 C-10.35877543 4.20155166 -10.33812547 2.596692 -8.9375 0.125 C-5.82785011 -1.68060316 -3.38260527 -0.79952488 0 0 Z " fill="#FFAC89" transform="translate(316,34)"/>
<path d="M0 0 C0.99 0.33 1.98 0.66 3 1 C2.01 1.66 1.02 2.32 0 3 C0.66 3.66 1.32 4.32 2 5 C1.27296875 5.27972656 0.5459375 5.55945313 -0.203125 5.84765625 C-10.13301263 9.80688068 -19.22565395 14.90670413 -28 21 C-28.66 20.67 -29.32 20.34 -30 20 C-23.03368559 13.0705444 -15.56649893 8.64425227 -7 4 C-6.37899414 3.61779297 -5.75798828 3.23558594 -5.11816406 2.84179688 C-3.45378894 1.82307698 -1.72933546 0.90406506 0 0 Z " fill="#3B556D" transform="translate(195,139)"/>
<path d="M0 0 C3 0.25 3 0.25 5 2.25 C5.375 5.1875 5.375 5.1875 5 8.25 C3.3125 10.25 3.3125 10.25 1 11.25 C-2.13759973 10.42824769 -3.70255875 9.54744125 -6 7.25 C-5.54913314 2.74133137 -4.87117378 0.40593115 0 0 Z " fill="#247427" transform="translate(459,95.75)"/>
<path d="M0 0 C1.22589844 0.01353516 1.22589844 0.01353516 2.4765625 0.02734375 C3.41628906 0.04474609 3.41628906 0.04474609 4.375 0.0625 C4.94140625 1.95703125 4.94140625 1.95703125 5.375 4.0625 C3.720066 6.6909246 2.38574106 7.05959096 -0.625 7.875 C-3.625 8.0625 -3.625 8.0625 -6.625 6.0625 C-6.8125 3.4375 -6.8125 3.4375 -6.625 1.0625 C-4.21954362 -0.14022819 -2.67503047 -0.03821472 0 0 Z " fill="#FAAA86" transform="translate(393.625,128.9375)"/>
<path d="M0 0 C2.375 1.3125 2.375 1.3125 4 3 C4 3.99 4 4.98 4 6 C-0.62 6 -5.24 6 -10 6 C-8.49272615 -0.02909541 -5.79201724 -0.59102217 0 0 Z " fill="#FAAA87" transform="translate(692,117)"/>
<path d="M0 0 C2.375 1.875 2.375 1.875 4 4 C4 4.66 4 5.32 4 6 C-0.95 6 -5.9 6 -11 6 C-7.49014934 0.1502489 -6.57703198 -0.6577032 0 0 Z " fill="#F9AA86" transform="translate(362,117)"/>
<path d="M0 0 C3.5 0.9375 3.5 0.9375 6.5 5.9375 C1.55 5.9375 -3.4 5.9375 -8.5 5.9375 C-6.15674971 1.25099942 -5.29699795 -0.09458925 0 0 Z " fill="#F9AA86" transform="translate(631.5,117.0625)"/>
<path d="M0 0 C3.63 0 7.26 0 11 0 C10.67 0.66 10.34 1.32 10 2 C9.34 2 8.68 2 8 2 C7.34 4.31 6.68 6.62 6 9 C4.125 8.4375 4.125 8.4375 2 7 C0.75 3.375 0.75 3.375 0 0 Z " fill="#5F6471" transform="translate(155,146)"/>
<path d="M0 0 C3.2826932 1.49076434 5.93077441 3.38620321 8.75 5.625 C9.94882813 6.57246094 9.94882813 6.57246094 11.171875 7.5390625 C11.77515625 8.02117187 12.3784375 8.50328125 13 9 C12.01 9.495 12.01 9.495 11 10 C8.1796875 8.56640625 8.1796875 8.56640625 4.875 6.5625 C3.77929688 5.90378906 2.68359375 5.24507812 1.5546875 4.56640625 C0.71164063 4.04949219 -0.13140625 3.53257812 -1 3 C-0.67 2.01 -0.34 1.02 0 0 Z " fill="#38526A" transform="translate(139,147)"/>
<path d="M0 0 C3 3 3 3 3.2487793 5.17651367 C3.16237183 6.40978394 3.16237183 6.40978394 3.07421875 7.66796875 C3.01943359 8.56064453 2.96464844 9.45332031 2.90820312 10.37304688 C2.83537109 11.30181641 2.76253906 12.23058594 2.6875 13.1875 C2.62626953 14.12787109 2.56503906 15.06824219 2.50195312 16.03710938 C2.34870489 18.35940957 2.1808714 20.67971458 2 23 C1.67 23 1.34 23 1 23 C0.67 15.41 0.34 7.82 0 0 Z " fill="#818B51" transform="translate(570,113)"/>
<path d="M0 0 C0.33 0 0.66 0 1 0 C1 2.97 1 5.94 1 9 C-0.32 9 -1.64 9 -3 9 C-2.5020163 5.26512223 -2.12508244 3.18762365 0 0 Z " fill="#D5DAC3" transform="translate(65,122)"/>
<path d="M0 0 C2.31 0 4.62 0 7 0 C6.34 1.98 5.68 3.96 5 6 C4.01 5.67 3.02 5.34 2 5 C0.8125 2.4375 0.8125 2.4375 0 0 Z " fill="#EEA688" transform="translate(157,147)"/>
<path d="M0 0 C0.66 0.33 1.32 0.66 2 1 C1 4 1 4 -1.4375 5.75 C-2.7059375 6.36875 -2.7059375 6.36875 -4 7 C-4.66 6.67 -5.32 6.34 -6 6 C-4.02 4.02 -2.04 2.04 0 0 Z " fill="#79868A" transform="translate(171,153)"/>
</svg>
