<?xml version="1.0" encoding="UTF-8"?>
<svg version="1.1" xmlns="http://www.w3.org/2000/svg" width="350" height="210">
<path d="M0 0 C1.69571575 -0.00913666 1.69571575 -0.00913666 3.42568839 -0.01845789 C7.22193289 -0.03513563 11.01784372 -0.03030511 14.81411743 -0.0255127 C17.53253748 -0.03121243 20.25093729 -0.04134252 22.96934509 -0.05117798 C29.59182392 -0.07223395 36.21421521 -0.07677273 42.83672355 -0.07499009 C48.2198507 -0.07368252 53.60295053 -0.07748636 58.98607254 -0.08491516 C60.53662129 -0.08701436 62.08717004 -0.08911196 63.6377188 -0.09120798 C64.40947049 -0.09225151 65.18122217 -0.09329504 65.97636028 -0.09437019 C80.57287301 -0.11327331 95.16933549 -0.11222217 109.76585539 -0.10540086 C123.11749786 -0.09982562 136.46894845 -0.12064982 149.82054608 -0.15376133 C163.53119517 -0.18749926 177.24175234 -0.20266652 190.95244372 -0.1980443 C198.64946187 -0.19579967 206.34630268 -0.20104169 214.04328537 -0.22593689 C220.59625422 -0.24695143 227.14894847 -0.25054072 233.7019286 -0.2316373 C237.0448214 -0.22247972 240.38678325 -0.22404637 243.7297039 -0.24199295 C247.35550992 -0.26011637 250.97994888 -0.24748517 254.60571289 -0.22705078 C255.65970508 -0.23956863 256.71369727 -0.25208648 257.79962862 -0.26498365 C263.39759222 -0.19725569 267.22684192 0.3023065 271.5716821 4.00128591 C275.83917467 8.37864351 276.3681298 12.23231342 276.32424927 18.16171265 C276.33034037 18.93692076 276.33643147 19.71212887 276.34270716 20.51082814 C276.35933769 23.10482107 276.35456134 25.69832315 276.34976196 28.2923584 C276.35710229 30.15364085 276.36568842 32.01491874 276.37542725 33.87619019 C276.39765636 38.92996221 276.4005732 43.98357126 276.39867973 49.03738546 C276.39856009 53.25707865 276.40712174 57.47673723 276.41545725 61.69642079 C276.43469657 71.65225157 276.43757329 81.6079985 276.43081665 91.56384277 C276.42417599 101.83236089 276.44704011 112.10051978 276.48413038 122.36896503 C276.5148251 131.18695773 276.52618763 140.00483486 276.52229357 148.82287991 C276.52022575 154.08866322 276.52571043 159.35416705 276.55018616 164.61989975 C276.57244672 169.57274297 276.57058109 174.52500218 276.55025864 179.47784805 C276.54684732 181.29388126 276.55194294 183.10995372 276.56624222 184.92593384 C276.58444263 187.40901496 276.57168166 189.89011649 276.55130005 192.37313843 C276.5638179 193.08861812 276.57633574 193.8040978 276.58923292 194.54125869 C276.49095575 200.14134856 274.6439892 203.42716648 270.92984009 207.39440918 C266.32794892 211.5454337 260.72519681 210.81834354 254.85968018 210.78881836 C253.72920301 210.79490946 252.59872584 210.80100057 251.43399179 210.80727625 C247.63774729 210.82395399 243.84183645 210.81912347 240.04556274 210.81433105 C237.32714269 210.82003079 234.60874289 210.83016088 231.89033508 210.83999634 C225.26785625 210.86105231 218.64546497 210.86559109 212.02295662 210.86380845 C206.63982948 210.86250088 201.25672964 210.86630472 195.87360764 210.87373352 C194.32305889 210.87583272 192.77251013 210.87793032 191.22196138 210.88002634 C190.45020969 210.88106987 189.678458 210.8821134 188.8833199 210.88318855 C174.28680717 210.90209167 159.69034469 210.90104053 145.09382479 210.89421922 C131.74218231 210.88864398 118.39073173 210.90946818 105.0391341 210.94257969 C91.32848501 210.97631762 77.61792784 210.99148488 63.90723646 210.98686266 C56.2102183 210.98461803 48.5133775 210.98986005 40.81639481 211.01475525 C34.26342596 211.03576979 27.7107317 211.03935908 21.15775158 211.02045566 C17.81485878 211.01129807 14.47289692 211.01286473 11.12997627 211.03081131 C7.50417026 211.04893473 3.8797313 211.03630352 0.25396729 211.01586914 C-0.8000249 211.02838699 -1.85401709 211.04090484 -2.93994844 211.05380201 C-8.53903888 210.98606042 -12.35752365 210.48046905 -16.71187049 206.79609793 C-20.36497549 203.02627089 -21.44587151 200.016808 -21.43092346 194.81987 C-21.43504745 193.71074249 -21.43917145 192.60161499 -21.44342041 191.45887756 C-21.43263458 190.2519072 -21.42184875 189.04493683 -21.41073608 187.8013916 C-21.4113932 185.88371979 -21.4113932 185.88371979 -21.4120636 183.92730713 C-21.4129231 180.4296537 -21.39530493 176.93230995 -21.37434173 173.43472838 C-21.35556729 169.77655473 -21.35382389 166.1183737 -21.3502655 162.4601593 C-21.34094727 155.53643586 -21.31633656 148.61285481 -21.28621703 141.68919402 C-21.25266607 133.80533041 -21.23618527 125.92145995 -21.22113073 118.0375427 C-21.18978675 101.82308156 -21.13703065 85.60876355 -21.07015991 69.39440918 C-22.57256226 70.02669434 -22.57256226 70.02669434 -24.10531616 70.67175293 C-25.44759079 71.22555854 -26.79004858 71.77892035 -28.13265991 72.33190918 C-28.78943726 72.60970215 -29.4462146 72.88749512 -30.12289429 73.17370605 C-34.4703291 74.95122866 -38.39508574 75.91413498 -43.07015991 76.39440918 C-42.56456621 72.34063107 -40.71666517 70.90904676 -37.57015991 68.45690918 C-25.78044029 59.39440918 -25.78044029 59.39440918 -21.07015991 59.39440918 C-21.08126297 58.79607773 -21.09236603 58.19774628 -21.10380554 57.58128357 C-21.21470095 51.33563208 -21.28995207 45.09026172 -21.34481812 38.84387207 C-21.36991219 36.5149804 -21.40399514 34.18616711 -21.44735718 31.85754395 C-21.50823108 28.5037499 -21.53642169 25.15099998 -21.55844116 21.79675293 C-21.58424759 20.76106674 -21.61005402 19.72538055 -21.63664246 18.65830994 C-21.63881077 13.02880727 -21.15423317 9.3038116 -17.63502502 4.81776428 C-12.09242157 -0.22362417 -7.18495333 -0.03616682 0 0 Z " fill="#FDAB88" transform="translate(48.070159912109375,-0.3944091796875)"/>
<path d="M0 0 C35.97 0 71.94 0 109 0 C109 8.58 109 17.16 109 26 C95.8 26 82.6 26 69 26 C69.06283948 39.3778667 69.13818175 52.75550095 69.23571491 66.13316059 C69.28049686 72.34453861 69.3197357 78.55584983 69.34643555 84.76733398 C69.37239045 90.7585678 69.41273728 96.74954567 69.46318626 102.74062157 C69.47990796 105.02959199 69.49138908 107.31860674 69.49761391 109.60762978 C69.50719735 112.8068099 69.53518768 116.00532733 69.56762695 119.2043457 C69.56547432 120.63285606 69.56547432 120.63285606 69.5632782 122.09022522 C69.58208542 123.39639801 69.58208542 123.39639801 69.60127258 124.72895813 C69.60588155 125.48575017 69.61049051 126.24254221 69.61523914 127.02226734 C70.10303969 129.52964059 71.154633 130.29401494 73 132 C74.1875 135.1875 74.1875 135.1875 75 138 C74.26177002 137.98428955 73.52354004 137.9685791 72.76293945 137.95239258 C56.87877748 137.6605899 41.62993411 138.05894562 26 141 C25.18136475 141.14453613 24.36272949 141.28907227 23.51928711 141.43798828 C17.73342057 142.50843219 12.31967491 144.06184351 6.8125 146.125 C5.9987793 146.42776855 5.18505859 146.73053711 4.34667969 147.04248047 C-6.09842147 151.04459914 -16.15482059 156.09644534 -25 163 C-25.66 162.67 -26.32 162.34 -27 162 C-20.03368559 155.0705444 -12.56649893 150.64425227 -4 146 C-2.81328661 145.29904905 -1.62708893 144.59722428 -0.44140625 143.89453125 C17.60406057 133.96030718 47.78395372 130.32435522 68 134 C67.67 132.68 67.34 131.36 67 130 C57.76 130 48.52 130 39 130 C39 125.38 39 120.76 39 116 C29.24318774 118.17957698 20.11847663 120.91269237 10.9140625 124.828125 C8 126 8 126 6 126 C5.75378906 126.886875 5.50757813 127.77375 5.25390625 128.6875 C2.04949691 137.1527309 -6.06753348 143.93671372 -14 148 C-16.80392538 149.04022894 -19.63020123 149.98100771 -22.46875 150.921875 C-26.29091332 152.54983345 -28.34894308 154.84739177 -31 158 C-34 157 -34 157 -35.5625 154.625 C-38.61956964 151.33277116 -41.0239509 150.97872547 -45.26953125 149.875 C-49.9708915 148.36841245 -53.92031219 145.72952279 -58 143 C-58.9075 142.401875 -59.815 141.80375 -60.75 141.1875 C-64.7035828 137.34373894 -68.18122877 132.61245146 -69.83984375 127.3203125 C-70.80388274 124.7726878 -70.80388274 124.7726878 -73.4609375 123.92578125 C-74.42257813 123.72339844 -75.38421875 123.52101563 -76.375 123.3125 C-79.88133822 122.54223972 -82.85383266 121.75201262 -86 120 C-85.505 121.1446875 -85.505 121.1446875 -85 122.3125 C-84 125 -84 125 -84 128 C-89.75128755 130.46483752 -94.94346981 131.34567603 -101.1875 131.4375 C-101.86425781 131.45941406 -102.54101562 131.48132813 -103.23828125 131.50390625 C-108.3143949 131.48399992 -111.19709101 130.31880459 -115 127 C-118.77258468 121.54155367 -119.59924155 117.56145192 -119.609375 111.00390625 C-119.62591125 110.17036118 -119.64244751 109.3368161 -119.65948486 108.47801208 C-119.70771714 105.83943127 -119.72927987 103.20142568 -119.75 100.5625 C-119.77818052 98.76364332 -119.80811085 96.96481315 -119.83984375 95.16601562 C-119.91346895 90.77739117 -119.96319429 86.38908141 -120 82 C-122.97 81.67 -125.94 81.34 -129 81 C-129 76.38 -129 71.76 -129 67 C-125.7 67 -122.4 67 -119 67 C-119 61.39 -119 55.78 -119 50 C-112.73 50 -106.46 50 -100 50 C-100 55.61 -100 61.22 -100 67 C-95.71 67 -91.42 67 -87 67 C-87 71.95 -87 76.9 -87 82 C-91.29 82 -95.58 82 -100 82 C-99.67 91.9 -99.34 101.8 -99 112 C-93.06 112.99 -93.06 112.99 -87 114 C-87 114.66 -87 115.32 -87 116 C-86.31292969 116.13277344 -85.62585938 116.26554687 -84.91796875 116.40234375 C-83.56638672 116.66724609 -83.56638672 116.66724609 -82.1875 116.9375 C-80.84751953 117.19853516 -80.84751953 117.19853516 -79.48046875 117.46484375 C-77 118 -77 118 -74 119 C-74.02320313 118.16597656 -74.04640625 117.33195312 -74.0703125 116.47265625 C-74.27809199 103.51612068 -72.18088212 92.51728907 -63.6875 82.1875 C-62.3571875 81.1046875 -62.3571875 81.1046875 -61 80 C-60.38769531 79.43796875 -59.77539062 78.8759375 -59.14453125 78.296875 C-50.4501158 70.75854758 -40.43171994 68.31234652 -29.06640625 68.75 C-17.56637183 69.68758242 -9.84283553 73.30929035 -2 82 C-1.50757813 82.52335937 -1.01515625 83.04671875 -0.5078125 83.5859375 C6.54092404 91.33604086 8.69180013 98.67210631 10 109 C13.40189888 100.39400581 14.91981778 90.45846393 12.23828125 81.4375 C11.29743446 79.47399365 10.26459157 77.76865954 9 76 C8.195625 74.700625 8.195625 74.700625 7.375 73.375 C0.33607479 66.33607479 -8.20086811 63.74586436 -17.60351562 61.26782227 C-24.02363249 59.5226515 -30.79694265 57.25896235 -35.56665039 52.40600586 C-47.64794171 40.55518714 -93.98398521 46.55045067 -109.35160828 46.66894531 C-129.01812885 46.89533401 -148.44857204 48.38043359 -167.78173828 52.1730957 C-171.23333487 52.83646432 -173.64214654 52.98808742 -177 52 C-146.99532245 42.81875797 -116.39247483 37.76769859 -85 37 C-84.14615723 36.97808594 -83.29231445 36.95617188 -82.41259766 36.93359375 C-62.87341933 36.51043883 -43.42366156 37.95612795 -24 40 C-72.89413873 25.67554529 -149.75544819 32.82528161 -195.37109375 56.76953125 C-198 58 -198 58 -201 57 C-168.40637901 27.16855028 -114.18269764 23.24720805 -72.08203125 18.65625 C-71.08755981 18.54725372 -70.09308838 18.43825745 -69.06848145 18.32595825 C-64.22866459 17.79979468 -59.38796636 17.29485328 -54.54248047 16.82373047 C-41.84586315 15.55185792 -41.84586315 15.55185792 -30 11 C-29.31719971 10.65727051 -28.63439941 10.31454102 -27.9309082 9.96142578 C-25.31740384 8.62704504 -22.73277892 7.24638008 -20.16601562 5.82421875 C-14.1810519 2.68436844 -10.27012926 2.32184168 -3 1 C-2.67 9.91 -2.34 18.82 -2 28 C16.81 28.495 16.81 28.495 36 29 C36 56.39 36 83.78 36 112 C36.99 112 37.98 112 39 112 C39 83.62 39 55.24 39 26 C26.13 26 13.26 26 0 26 C0 17.42 0 8.84 0 0 Z " fill="#1E3F60" transform="translate(207,17)"/>
<path d="M0 0 C0.33 8.91 0.66 17.82 1 27 C19.81 27.495 19.81 27.495 39 28 C39 55.39 39 82.78 39 111 C16 118 16 118 11 119 C11.87206191 113.6034757 12.79195443 108.41032733 14.625 103.25 C17.028973 95.53263027 17.81944153 85.82426928 14.25 78.375 C13.53339812 77.22843699 12.78640166 76.09986246 12 75 C11.195625 73.700625 11.195625 73.700625 10.375 72.375 C3.33607479 65.33607479 -5.20086811 62.74586436 -14.60351562 60.26782227 C-21.02363249 58.5226515 -27.79694265 56.25896235 -32.56665039 51.40600586 C-44.64794171 39.55518714 -90.98398521 45.55045067 -106.35160828 45.66894531 C-126.01812885 45.89533401 -145.44857204 47.38043359 -164.78173828 51.1730957 C-168.23333487 51.83646432 -170.64214654 51.98808742 -174 51 C-143.99532245 41.81875797 -113.39247483 36.76769859 -82 36 C-81.14615723 35.97808594 -80.29231445 35.95617188 -79.41259766 35.93359375 C-59.87341933 35.51043883 -40.42366156 36.95612795 -21 39 C-69.89413873 24.67554529 -146.75544819 31.82528161 -192.37109375 55.76953125 C-195 57 -195 57 -198 56 C-165.40637901 26.16855028 -111.18269764 22.24720805 -69.08203125 17.65625 C-68.08755981 17.54725372 -67.09308838 17.43825745 -66.06848145 17.32595825 C-61.22866459 16.79979468 -56.38796636 16.29485328 -51.54248047 15.82373047 C-38.84927902 14.54224129 -38.84927902 14.54224129 -27 10 C-26.30124756 9.65727051 -25.60249512 9.31454102 -24.88256836 8.96142578 C-22.197574 7.62823507 -19.54804504 6.2335131 -16.90234375 4.82421875 C-11.49338774 2.02869891 -6.18665288 0 0 0 Z " fill="#006A18" transform="translate(204,18)"/>
<path d="M0 0 C2.76886175 2.76886175 3.91257645 6.03534687 5.48828125 9.58984375 C7.37005998 12.58999227 8.74214578 13.60829528 12 15 C14.68128404 15.26527597 17.08130384 15.38028438 19.75 15.3125 C20.45576172 15.30412109 21.16152344 15.29574219 21.88867188 15.28710938 C27.18198303 15.16559167 31.92457972 14.45012008 37 13 C36.01 9.04 36.01 9.04 35 5 C36.75140143 5.45294865 38.50107344 5.91258748 40.25 6.375 C41.71179688 6.75785156 41.71179688 6.75785156 43.203125 7.1484375 C48.3821394 8.72528825 50.34505424 10.0004108 53 14.8125 C58.76078053 25.15998894 66.7039045 31.04780222 78.0625 34.39453125 C82.62621049 35.82069078 85.40564318 38.04019223 88 42 C90.67060875 40.87012707 92.30691307 39.70882606 94.4375 37.6875 C97.43675033 35.06790161 100.49835959 34.02405885 104.25 32.75 C113.22597708 29.46460816 119.49085457 24.27684517 123.875 15.75 C127.37992299 9.45087451 132.3692512 8.06979896 139 6 C140.3873784 5.53320602 141.77406917 5.06436456 143.16015625 4.59375 C154.01167855 1 154.01167855 1 160 1 C160 5.62 160 10.24 160 15 C169.24 15 178.48 15 188 15 C188.33 16.32 188.66 17.64 189 19 C187.82566406 18.97679687 186.65132812 18.95359375 185.44140625 18.9296875 C154.91998568 18.51123579 120.07280567 22.93915949 97 45 C97 45.33 97 45.66 97 46 C97.99 45.39671875 98.98 44.7934375 100 44.171875 C101.33323583 43.36442232 102.66657472 42.55713978 104 41.75 C104.64839844 41.35425781 105.29679688 40.95851562 105.96484375 40.55078125 C122.04198312 30.84082579 139.37154351 25.18744853 158 23 C158.7420166 22.90501221 159.4840332 22.81002441 160.24853516 22.7121582 C167.54127696 21.86290137 174.79086947 21.88645948 182.125 21.9375 C183.98898437 21.94426758 183.98898437 21.94426758 185.890625 21.95117188 C188.92713502 21.96285076 191.96354088 21.9792286 195 22 C194.67 20.68 194.34 19.36 194 18 C195.98 18 197.96 18 200 18 C200.55429687 19.04800781 201.10859375 20.09601563 201.6796875 21.17578125 C202.41137539 22.55473151 203.1431508 23.93363534 203.875 25.3125 C204.42220703 26.34793945 204.42220703 26.34793945 204.98046875 27.40429688 C205.33496094 28.07138672 205.68945312 28.73847656 206.0546875 29.42578125 C206.37937012 30.03848877 206.70405273 30.65119629 207.03857422 31.2824707 C207.94547058 32.90258648 208.9701029 34.45515434 210 36 C210 36.99 210 37.98 210 39 C208.08329274 38.85470122 206.16663703 38.70872231 204.25 38.5625 C203.18265625 38.48128906 202.1153125 38.40007812 201.015625 38.31640625 C198.77514433 38.14533216 196.53766842 37.95803066 194.29980469 37.75488281 C176.40799284 36.15813073 158.93195427 36.44563182 141.1875 39.1875 C139.23312012 39.48164795 139.23312012 39.48164795 137.23925781 39.78173828 C128.34212445 41.26307802 120.40159973 43.770446 112 47 C109.00942233 48.02957774 106.00596957 49.01645168 103 50 C101.824375 50.391875 100.64875 50.78375 99.4375 51.1875 C98.2309375 51.5896875 98.2309375 51.5896875 97 52 C97 52.66 97 53.32 97 54 C93.29627833 56.37038187 90.32878264 56.49674555 86 56 C83.68955582 54.92207902 81.55079046 53.66820404 79.36328125 52.359375 C66.68276917 45.06546062 51.25785787 41.37334763 36.9375 39.1875 C35.91926651 39.03015381 35.91926651 39.03015381 34.88046265 38.86962891 C12.84683492 35.53111332 -9.07926857 35.93522861 -31 40 C-29.14665766 32.14595398 -25.12994189 24.88323649 -21 18 C-18.69 18 -16.38 18 -14 18 C-14.99 20.475 -14.99 20.475 -16 23 C-14.0509375 22.7525 -14.0509375 22.7525 -12.0625 22.5 C6.56698756 20.72576309 29.67996059 21.30389804 47.0625 28.9375 C50.08438329 30.22390542 53.03507791 31.33497112 56.1875 32.25 C62.07100585 34.13018679 67.35611011 37.28705092 72.7421875 40.2578125 C75.88062762 42.0538305 75.88062762 42.0538305 79 43 C72.29898925 37.86595564 65.76457438 33.34457428 58 30 C56.86304688 29.50628906 55.72609375 29.01257813 54.5546875 28.50390625 C34.15147173 20.06710014 12.80079231 18.79667655 -9 19 C-7.35744109 12.10125259 -3.54942304 6.08472521 0 0 Z " fill="#F9F9D7" transform="translate(86,132)"/>
<path d="M0 0 C7.74592497 5.56780898 12.20246107 13.23238322 15.1875 22.1875 C16.4593497 33.59078882 14.78850624 41.58164815 8.1875 51.1875 C1.6710589 58.42552317 -5.86322468 63.56504061 -15.6953125 64.59375 C-26.73566663 64.99934047 -34.62148008 63.25033707 -43.40625 56.06640625 C-50.05496182 49.8386356 -54.45530135 43.08814686 -55.015625 33.83203125 C-55.16664508 21.48613931 -53.46949497 13.39921504 -44.8125 4.1875 C-32.18890509 -7.89742574 -14.78790736 -9.31271521 0 0 Z " fill="#F3F4D4" transform="translate(194.8125,97.8125)"/>
<path d="M0 0 C1.69571575 -0.00913666 1.69571575 -0.00913666 3.42568839 -0.01845789 C7.22193289 -0.03513563 11.01784372 -0.03030511 14.81411743 -0.0255127 C17.53253748 -0.03121243 20.25093729 -0.04134252 22.96934509 -0.05117798 C29.59182392 -0.07223395 36.21421521 -0.07677273 42.83672355 -0.07499009 C48.2198507 -0.07368252 53.60295053 -0.07748636 58.98607254 -0.08491516 C60.53662129 -0.08701436 62.08717004 -0.08911196 63.6377188 -0.09120798 C64.40947049 -0.09225151 65.18122217 -0.09329504 65.97636028 -0.09437019 C80.57287301 -0.11327331 95.16933549 -0.11222217 109.76585539 -0.10540086 C123.11749786 -0.09982562 136.46894845 -0.12064982 149.82054608 -0.15376133 C163.53119517 -0.18749926 177.24175234 -0.20266652 190.95244372 -0.1980443 C198.64946187 -0.19579967 206.34630268 -0.20104169 214.04328537 -0.22593689 C220.59625422 -0.24695143 227.14894847 -0.25054072 233.7019286 -0.2316373 C237.0448214 -0.22247972 240.38678325 -0.22404637 243.7297039 -0.24199295 C247.35550992 -0.26011637 250.97994888 -0.24748517 254.60571289 -0.22705078 C255.65970508 -0.23956863 256.71369727 -0.25208648 257.79962862 -0.26498365 C263.39759222 -0.19725569 267.22684192 0.3023065 271.5716821 4.00128591 C275.83917467 8.37864351 276.3681298 12.23231342 276.32424927 18.16171265 C276.33034037 18.93692076 276.33643147 19.71212887 276.34270716 20.51082814 C276.35933769 23.10482107 276.35456134 25.69832315 276.34976196 28.2923584 C276.35710229 30.15364085 276.36568842 32.01491874 276.37542725 33.87619019 C276.39765636 38.92996221 276.4005732 43.98357126 276.39867973 49.03738546 C276.39856009 53.25707865 276.40712174 57.47673723 276.41545725 61.69642079 C276.43469657 71.65225157 276.43757329 81.6079985 276.43081665 91.56384277 C276.42417599 101.83236089 276.44704011 112.10051978 276.48413038 122.36896503 C276.5148251 131.18695773 276.52618763 140.00483486 276.52229357 148.82287991 C276.52022575 154.08866322 276.52571043 159.35416705 276.55018616 164.61989975 C276.57244672 169.57274297 276.57058109 174.52500218 276.55025864 179.47784805 C276.54684732 181.29388126 276.55194294 183.10995372 276.56624222 184.92593384 C276.58444263 187.40901496 276.57168166 189.89011649 276.55130005 192.37313843 C276.5638179 193.08861812 276.57633574 193.8040978 276.58923292 194.54125869 C276.49095575 200.14134856 274.6439892 203.42716648 270.92984009 207.39440918 C266.32794892 211.5454337 260.72519681 210.81834354 254.85968018 210.78881836 C253.72920301 210.79490946 252.59872584 210.80100057 251.43399179 210.80727625 C247.63774729 210.82395399 243.84183645 210.81912347 240.04556274 210.81433105 C237.32714269 210.82003079 234.60874289 210.83016088 231.89033508 210.83999634 C225.26785625 210.86105231 218.64546497 210.86559109 212.02295662 210.86380845 C206.63982948 210.86250088 201.25672964 210.86630472 195.87360764 210.87373352 C194.32305889 210.87583272 192.77251013 210.87793032 191.22196138 210.88002634 C190.45020969 210.88106987 189.678458 210.8821134 188.8833199 210.88318855 C174.28680717 210.90209167 159.69034469 210.90104053 145.09382479 210.89421922 C131.74218231 210.88864398 118.39073173 210.90946818 105.0391341 210.94257969 C91.32848501 210.97631762 77.61792784 210.99148488 63.90723646 210.98686266 C56.2102183 210.98461803 48.5133775 210.98986005 40.81639481 211.01475525 C34.26342596 211.03576979 27.7107317 211.03935908 21.15775158 211.02045566 C17.81485878 211.01129807 14.47289692 211.01286473 11.12997627 211.03081131 C7.50417026 211.04893473 3.8797313 211.03630352 0.25396729 211.01586914 C-0.8000249 211.02838699 -1.85401709 211.04090484 -2.93994844 211.05380201 C-8.53903888 210.98606042 -12.35752365 210.48046905 -16.71187049 206.79609793 C-20.36497549 203.02627089 -21.44587151 200.016808 -21.43092346 194.81987 C-21.43504745 193.71074249 -21.43917145 192.60161499 -21.44342041 191.45887756 C-21.43263458 190.2519072 -21.42184875 189.04493683 -21.41073608 187.8013916 C-21.4113932 185.88371979 -21.4113932 185.88371979 -21.4120636 183.92730713 C-21.4129231 180.4296537 -21.39530493 176.93230995 -21.37434173 173.43472838 C-21.35556729 169.77655473 -21.35382389 166.1183737 -21.3502655 162.4601593 C-21.34094727 155.53643586 -21.31633656 148.61285481 -21.28621703 141.68919402 C-21.25266607 133.80533041 -21.23618527 125.92145995 -21.22113073 118.0375427 C-21.18978675 101.82308156 -21.13703065 85.60876355 -21.07015991 69.39440918 C-22.57256226 70.02669434 -22.57256226 70.02669434 -24.10531616 70.67175293 C-25.44759079 71.22555854 -26.79004858 71.77892035 -28.13265991 72.33190918 C-28.78943726 72.60970215 -29.4462146 72.88749512 -30.12289429 73.17370605 C-34.4703291 74.95122866 -38.39508574 75.91413498 -43.07015991 76.39440918 C-42.56456621 72.34063107 -40.71666517 70.90904676 -37.57015991 68.45690918 C-25.78044029 59.39440918 -25.78044029 59.39440918 -21.07015991 59.39440918 C-21.08126297 58.79607773 -21.09236603 58.19774628 -21.10380554 57.58128357 C-21.21470095 51.33563208 -21.28995207 45.09026172 -21.34481812 38.84387207 C-21.36991219 36.5149804 -21.40399514 34.18616711 -21.44735718 31.85754395 C-21.50823108 28.5037499 -21.53642169 25.15099998 -21.55844116 21.79675293 C-21.58424759 20.76106674 -21.61005402 19.72538055 -21.63664246 18.65830994 C-21.63881077 13.02880727 -21.15423317 9.3038116 -17.63502502 4.81776428 C-12.09242157 -0.22362417 -7.18495333 -0.03616682 0 0 Z M-16.92684937 9.47131348 C-18.69555648 13.99335711 -18.4374381 18.35393274 -18.36312866 23.16394043 C-18.3567614 24.71814949 -18.3567614 24.71814949 -18.3502655 26.30375671 C-18.33350596 29.6050746 -18.29585801 32.90577655 -18.25765991 36.20690918 C-18.24260959 38.44843681 -18.22892179 40.68997403 -18.21664429 42.93151855 C-18.18361139 48.41935804 -18.13343884 53.9068396 -18.07015991 59.39440918 C-19.00352173 59.69314941 -19.93688354 59.99188965 -20.89852905 60.29968262 C-28.95068844 63.07898234 -35.83673357 68.71506518 -42.07015991 74.39440918 C-38.1241657 75.70974058 -37.21218453 74.74194295 -33.50765991 72.95690918 C-6.38271492 60.6964047 23.52641008 56.12308829 52.92984009 53.39440918 C53.70021606 53.32238281 54.47059204 53.25035645 55.26431274 53.17614746 C81.00106583 50.91073632 109.91484178 50.06579639 134.92984009 57.39440918 C133.69491821 57.26163574 132.45999634 57.1288623 131.18765259 56.99206543 C83.37831746 51.95649783 32.25148487 52.49990298 -13.75640869 67.94615173 C-14.96904294 68.35260249 -14.96904294 68.35260249 -16.20617485 68.76726437 C-17.12884746 69.07770105 -17.12884746 69.07770105 -18.07015991 69.39440918 C-18.16364413 86.11025845 -18.23415903 102.8260228 -18.2774086 119.54207039 C-18.29802483 127.30381133 -18.32612728 135.06538975 -18.37191772 142.82702637 C-18.41181449 149.59289436 -18.43759956 156.35864463 -18.44651389 163.12462699 C-18.45172391 166.70648452 -18.46394919 170.2880053 -18.49308014 173.86975479 C-18.52535404 177.87047447 -18.52611752 181.8706105 -18.52426147 185.87145996 C-18.53864258 187.05613358 -18.55302368 188.24080719 -18.56784058 189.46138 C-18.53626802 195.7411098 -18.412121 199.69440539 -14.07015991 204.39440918 C-11.09275195 207.02397709 -9.27769227 207.76979883 -5.31556892 207.77472591 C-4.35685454 207.78316585 -3.39814015 207.7916058 -2.41037381 207.80030149 C-1.35999806 207.79429145 -0.30962231 207.7882814 0.77258301 207.78208923 C1.89066066 207.78747477 3.00873831 207.79286031 4.1606971 207.79840904 C7.92093236 207.81275836 11.68081904 207.80556752 15.44107056 207.79846191 C18.13140993 207.80416186 20.82172396 207.81102362 23.51205444 207.81925964 C30.06950409 207.83646977 36.626858 207.83728301 43.18432437 207.83204674 C48.51408874 207.82800755 53.84382479 207.82944561 59.1735878 207.834795 C59.93176248 207.83554342 60.68993716 207.83629184 61.47108684 207.83706294 C63.01126432 207.8385944 64.5514418 207.84013275 66.09161927 207.84167791 C80.54074143 207.85541121 94.98980947 207.84995967 109.43893041 207.8384927 C122.65872318 207.82856165 135.87837596 207.84149725 149.09814714 207.86542689 C162.66976626 207.88980844 176.24132016 207.89942796 189.81296074 207.89277416 C197.43336121 207.88927955 205.05365401 207.89152981 212.67403793 207.90902519 C219.16189012 207.92373549 225.64955887 207.92439821 232.13740741 207.90695428 C235.44759773 207.8984316 238.75739213 207.89848653 242.06757736 207.91160583 C245.6564065 207.92474523 249.24433978 207.91332942 252.83312988 207.89561462 C254.40200134 207.91002213 254.40200134 207.91002213 256.00256717 207.9247207 C261.78851431 207.86581085 265.47059013 207.47320191 269.92984009 203.39440918 C273.17270552 199.41064889 273.35978471 195.73043598 273.31752014 190.77223206 C273.32290568 190.01265259 273.32829122 189.25307312 273.33383995 188.47047609 C273.3481288 185.92941125 273.34101367 183.38886666 273.33389282 180.84777832 C273.33959591 179.02428265 273.34655993 177.20079054 273.35469055 175.37730408 C273.37264382 170.42689053 273.37144949 165.47665403 273.36574817 160.5262177 C273.36265946 156.39341848 273.36874523 152.26065342 273.37478691 148.12785906 C273.38883765 138.37821995 273.38726627 128.62866846 273.37588501 118.87902832 C273.36440288 108.82070753 273.37847985 98.76265335 273.40528148 88.7043677 C273.4274323 80.06813207 273.43407726 71.43198016 273.42820507 62.79571813 C273.42483286 57.63788211 273.42726816 52.480217 273.4444561 47.32240486 C273.45991327 42.47221856 273.4559833 37.62242747 273.43715096 32.77225685 C273.43346168 30.99289781 273.4365834 29.21350956 273.44703674 27.4341774 C273.4602256 25.00351865 273.44871893 22.57417233 273.43104553 20.14356995 C273.44065054 19.44074121 273.45025555 18.73791247 273.46015161 18.0137859 C273.38565531 13.02847778 272.12816153 10.18439973 268.92984009 6.39440918 C264.33435715 2.28003128 258.83902795 2.9731292 253.00480652 3.00672913 C251.33253373 2.99865082 251.33253373 2.99865082 249.62647766 2.99040931 C245.88316719 2.97607848 242.14020779 2.98324631 238.3968811 2.99035645 C235.7162463 2.98465557 233.03563688 2.9777933 230.35501099 2.96955872 C223.8251039 2.95235947 217.29529299 2.95153302 210.76536912 2.95677162 C205.4580352 2.96081244 200.15072971 2.95937081 194.84339714 2.95402336 C194.08813331 2.95327494 193.33286948 2.95252652 192.55471886 2.95175542 C191.02041991 2.95022394 189.48612097 2.9486856 187.95182204 2.94714045 C173.562307 2.93341135 159.17284632 2.93885598 144.78333252 2.95032566 C131.61856859 2.96025864 118.45394519 2.94731702 105.28920294 2.92339147 C91.77179269 2.89901005 78.25444793 2.88939022 64.73701614 2.89604419 C57.14792954 2.89953853 49.55895104 2.89729024 41.96988106 2.87979317 C35.5095012 2.86508314 29.04930556 2.86441992 22.58892936 2.88186408 C19.29290839 2.89038653 15.99728502 2.89033219 12.70126915 2.87721252 C9.12781892 2.86407278 5.55526834 2.87548919 1.9818573 2.89320374 C0.94051606 2.88359873 -0.10082518 2.87399372 -1.17372221 2.86409765 C-8.31015386 2.9370679 -12.06225399 4.02974703 -16.92684937 9.47131348 Z " fill="#FFFDD9" transform="translate(48.070159912109375,-0.3944091796875)"/>
<path d="M0 0 C-1.00865248 7.81705676 -5.47155142 15.06911886 -9 22 C-8.154375 21.79503906 -7.30875 21.59007812 -6.4375 21.37890625 C-5.303125 21.10949219 -4.16875 20.84007812 -3 20.5625 C-1.88625 20.29566406 -0.7725 20.02882812 0.375 19.75390625 C28.98043287 13.80471601 74.85591679 16.31562717 100.09326172 32.328125 C101.74612548 33.52863966 103.3750605 34.76195086 105 36 C109.64398011 37.54799337 114.32517708 37.49594333 119 36 C119 35.34 119 34.68 119 34 C125.44820706 30.4483916 131.85175951 27.94068536 138.921875 25.89453125 C140.88947832 25.32272775 142.84430972 24.70352313 144.77758789 24.0246582 C172.32145426 15.26629718 203.88286795 16.10046835 232 21 C231.443125 19.88625 230.88625 18.7725 230.3125 17.625 C229.77302734 16.5421875 229.77302734 16.5421875 229.22265625 15.4375 C228.36367481 13.72502582 227.49567242 12.01706126 226.62109375 10.3125 C226.16863281 9.425625 225.71617187 8.53875 225.25 7.625 C224.82203125 6.79226562 224.3940625 5.95953125 223.953125 5.1015625 C223 3 223 3 223 1 C226.12498564 0.50980617 228.8943894 0.32146323 232 1 C234.37969042 3.32758041 235.62458353 5.99817865 237 9 C238.61612482 12.29210611 240.28283855 15.54487283 242.04296875 18.76171875 C242.39423828 19.40560547 242.74550781 20.04949219 243.10742188 20.71289062 C243.83510991 22.043257 244.56697227 23.37134757 245.30273438 24.69726562 C248 29.66643959 248 29.66643959 248 33 C242.46704564 32.63779757 237.25114218 31.87591654 231.875 30.5 C216.976469 26.9609515 201.19574656 27.77201796 185.98046875 27.96289062 C184.1888837 27.98519739 182.3971873 28.00147507 180.60546875 28.00585938 C170.84845902 28.05111452 161.69708944 29.69718125 152.1875 31.75 C151.06609619 31.98992676 149.94469238 32.22985352 148.78930664 32.47705078 C139.0128164 34.71468619 129.76040516 37.45663563 122 44 C118.43464619 46.33489906 115.2760804 46.29900935 111.0625 46.3125 C109.85722656 46.32925781 108.65195313 46.34601563 107.41015625 46.36328125 C103.11207353 45.90540989 100.51442177 44.59562401 97.54296875 41.46484375 C90.50270629 34.78105028 76.264389 33.1064295 67 31 C66.10539062 30.7834375 65.21078125 30.566875 64.2890625 30.34375 C48.95304223 26.87913412 32.61722405 27.7598922 17 28 C15.71561035 28.01885254 15.71561035 28.01885254 14.40527344 28.03808594 C4.9812263 28.22741694 -3.83766175 29.31765255 -12.98999023 31.62792969 C-17.09572129 32.65897377 -20.76543776 33.20640162 -25 33 C-22.81451989 25.6029904 -19.63585854 19.21773307 -15.875 12.5 C-15.32457031 11.4996875 -14.77414063 10.499375 -14.20703125 9.46875 C-10.17201748 2.17201748 -10.17201748 2.17201748 -9 1 C-2.88888889 0 -2.88888889 0 0 0 Z " fill="#224162" transform="translate(64,150)"/>
<path d="M0 0 C0.33 0.66 0.66 1.32 1 2 C-0.30710938 1.86722656 -1.61421875 1.73445313 -2.9609375 1.59765625 C-49.7643737 -3.07121378 -95.44223395 -0.89427255 -141.25488281 10.33691406 C-145.1583773 11.27980725 -149.07671025 12.14356461 -153 13 C-153 12.01 -153 11.02 -153 10 C-111.01232739 -5.81266517 -42.9193804 -15.98487166 0 0 Z " fill="#FFAC89" transform="translate(183,56)"/>
<path d="M0 0 C0.99 0 1.98 0 3 0 C2.27623543 3.49403583 0.93714794 6.51998905 -0.5625 9.75 C-1.01753906 10.73484375 -1.47257812 11.7196875 -1.94140625 12.734375 C-2.29074219 13.48203125 -2.64007813 14.2296875 -3 15 C-2.21689453 14.75830078 -2.21689453 14.75830078 -1.41796875 14.51171875 C9.57622743 12.18499872 22.01660796 14.37486622 33 16 C34.22332031 16.17144531 35.44664063 16.34289062 36.70703125 16.51953125 C52.75640594 19.21471335 69.96494364 25.84410809 82.5625 36.3125 C83.40941406 37.00988281 84.25632812 37.70726562 85.12890625 38.42578125 C86.05509766 39.20501953 86.05509766 39.20501953 87 40 C86.01 40.495 86.01 40.495 85 41 C82.71651839 39.84027903 80.56264365 38.63316434 78.375 37.3125 C77.09844846 36.56375187 75.82110973 35.81634415 74.54296875 35.0703125 C73.92856934 34.70969727 73.31416992 34.34908203 72.68115234 33.97753906 C67.37832728 30.89410724 62.10397589 28.54421122 56.25 26.71484375 C54.84105578 26.26721043 53.44209021 25.78515974 52.0625 25.25390625 C36.71247391 19.46766595 19.06571527 18.82482372 2.875 18.9375 C1.63234375 18.94201172 0.3896875 18.94652344 -0.890625 18.95117188 C-3.92713502 18.96285076 -6.96354088 18.9792286 -10 19 C-8.56893058 14.51692011 -6.85252569 10.73607126 -4.4375 6.6875 C-3.50744141 5.11548828 -3.50744141 5.11548828 -2.55859375 3.51171875 C-1 1 -1 1 0 0 Z " fill="#2C4A68" transform="translate(80,136)"/>
<path d="M0 0 C2.76886175 2.76886175 3.91257645 6.03534687 5.48828125 9.58984375 C7.41100945 12.65527863 8.63027965 13.63244771 12 15 C15.28262135 15.34246737 18.51686479 15.28334621 21.8125 15.1875 C22.69615234 15.17396484 23.57980469 15.16042969 24.49023438 15.14648438 C26.66042023 15.11129217 28.83029033 15.05748985 31 15 C27.99382731 18.00617269 25.17618402 17.59585316 21 18 C21 18.33 21 18.66 21 19 C11.1 19 1.2 19 -9 19 C-7.27354375 12.094175 -3.56780867 6.11624343 0 0 Z " fill="#F1F3D3" transform="translate(86,132)"/>
<path d="M0 0 C1.98 0.495 1.98 0.495 4 1 C4.06058594 2.24136719 4.12117187 3.48273438 4.18359375 4.76171875 C4.26803623 6.40365577 4.35268236 8.04558232 4.4375 9.6875 C4.47681641 10.50412109 4.51613281 11.32074219 4.55664062 12.16210938 C4.79762048 18.15467632 4.79762048 18.15467632 6 24 C8.29534258 25.13545562 8.29534258 25.13545562 11 26 C12.70294787 27.28667172 14.37946188 28.61096733 16 30 C15.67 30.99 15.34 31.98 15 33 C11.49371851 31.30947142 8.27361517 29.31590972 5 27.21875 C3.06188355 26.03771029 1.03000496 25.01500248 -1 24 C-0.67 16.08 -0.34 8.16 0 0 Z " fill="#35506B" transform="translate(173,105)"/>
<path d="M0 0 C0.99 0.33 1.98 0.66 3 1 C2.01 1.66 1.02 2.32 0 3 C0.66 3.66 1.32 4.32 2 5 C1.27296875 5.27972656 0.5459375 5.55945313 -0.203125 5.84765625 C-10.13301263 9.80688068 -19.22565395 14.90670413 -28 21 C-28.66 20.67 -29.32 20.34 -30 20 C-23.03368559 13.0705444 -15.56649893 8.64425227 -7 4 C-6.37899414 3.61779297 -5.75798828 3.23558594 -5.11816406 2.84179688 C-3.45378894 1.82307698 -1.72933546 0.90406506 0 0 Z " fill="#3B556D" transform="translate(210,159)"/>
<path d="M0 0 C2.125 0.375 2.125 0.375 4 1 C4.625 2.875 4.625 2.875 5 5 C4.34 5.66 3.68 6.32 3 7 C0.875 6.625 0.875 6.625 -1 6 C-1.625 4.125 -1.625 4.125 -2 2 C-1.34 1.34 -0.68 0.68 0 0 Z " fill="#FFAC89" transform="translate(186,32)"/>
<path d="M0 0 C3.2826932 1.49076434 5.93077441 3.38620321 8.75 5.625 C9.94882813 6.57246094 9.94882813 6.57246094 11.171875 7.5390625 C11.77515625 8.02117187 12.3784375 8.50328125 13 9 C12.01 9.495 12.01 9.495 11 10 C8.1796875 8.56640625 8.1796875 8.56640625 4.875 6.5625 C3.77929688 5.90378906 2.68359375 5.24507812 1.5546875 4.56640625 C0.71164063 4.04949219 -0.13140625 3.53257812 -1 3 C-0.67 2.01 -0.34 1.02 0 0 Z " fill="#38526A" transform="translate(154,167)"/>
<path d="M0 0 C2.31 0 4.62 0 7 0 C7.33 0.99 7.66 1.98 8 3 C7.34 3.66 6.68 4.32 6 5 C4 4.875 4 4.875 2 4 C0.75 1.9375 0.75 1.9375 0 0 Z " fill="#A1847E" transform="translate(172,168)"/>
<path d="M0 0 C0.66 0.33 1.32 0.66 2 1 C1 4 1 4 -1.4375 5.75 C-2.7059375 6.36875 -2.7059375 6.36875 -4 7 C-4.66 6.67 -5.32 6.34 -6 6 C-4.02 4.02 -2.04 2.04 0 0 Z " fill="#79868A" transform="translate(186,173)"/>
</svg>
