<svg xmlns="http://www.w3.org/2000/svg" width="2048" height="2048" viewBox="0 0 2048 2048">
  <circle id="fondo" cx="1024" cy="1024" r="1024" fill="#cd692b"/>
  <path id="silla" fill="#fff" d="m 926.00958,1744.9819 c -7.41052,-0.4352 -31.66316,-2.496 -53.89474,-4.5795 -66.16747,-6.2012 -125.51097,-16.3188 -171.4128,-29.2247 -43.30221,-12.1749 -73.68949,-25.7934 -94.81652,-42.4934 l -12.42477,-9.8212 -5.20883,-10.76 -5.20885,-10.76 0.0539,-14.5376 0.0539,-14.5375 4.49421,-9.8939 4.49421,-9.8939 11.9477,-10.5168 c 6.57124,-5.7842 18.58014,-14.2071 26.68645,-18.7175 8.1063,-4.5104 22.45548,-11.0992 31.88706,-14.6417 38.45385,-14.4433 112.99654,-30.6702 173.93302,-37.8626 31.05006,-3.6649 82.86286,-7.5087 84.1303,-6.2413 1.33063,1.3307 -4.64531,23.0462 -6.68643,24.2974 -0.82572,0.5061 -16.38358,2.2058 -34.57306,3.7772 -46.33058,4.0024 -98.18492,11.412 -138.41148,19.7781 l -34.29665,7.1328 -24.49761,8.2648 c -27.03176,9.1198 -42.44764,16.2822 -54.50975,25.3257 -4.38037,3.2842 -9.61673,9.1667 -11.63637,13.0722 -2.01963,3.9056 -3.67206,9.9086 -3.67206,13.34 v 6.239 l 8.52923,9.4409 8.52923,9.4408 14.13106,7.4753 c 7.77208,4.1114 25.70617,11.3649 39.85354,16.119 45.13427,15.1667 103.36719,26.2361 184.95694,35.158 l 39.19617,4.2861 117.58852,8e-4 117.5885,9e-4 29.3971,-3.0117 c 69.6252,-7.133 129.5752,-16.4887 168.4974,-26.2953 27.5807,-6.9491 54.1741,-16.3295 70.946,-25.0251 l 16.5151,-8.5625 8.5949,-9.5136 8.5948,-9.5136 v -6.239 c 0,-3.4314 -1.6525,-9.4344 -3.6721,-13.34 -2.0196,-3.9055 -7.3321,-9.8926 -11.8055,-13.3046 -19.1454,-14.6029 -68.4731,-31.8481 -119.2593,-41.6934 -43.781,-8.4874 -77.3648,-13.1624 -124.2965,-17.3026 -22.5843,-1.9923 -42.9029,-3.6279 -45.1525,-3.6346 l -4.0902,-0.012 -4.1211,-12.4075 c -2.2667,-6.8241 -3.5272,-13.0014 -2.8014,-13.7273 1.7879,-1.7878 60.67,3.2252 105.744,9.0027 20.2106,2.5905 50.5263,7.454 67.3684,10.8077 16.8422,3.3537 44.402,10.0859 61.2441,14.9605 l 30.622,8.863 22.0478,10.4568 22.0479,10.4568 13.2318,11.9759 13.2318,11.9759 4.4752,9.8512 4.4751,9.8513 0.054,14.5376 0.054,14.5375 -5.1149,10.566 -5.1149,10.5659 -10.0761,8.6248 c -5.5418,4.7436 -15.642,11.7448 -22.4449,15.5582 -39.2086,21.9789 -112.5781,41.2338 -202.2253,53.0715 -15.4947,2.0461 -50.7713,5.3376 -78.3923,7.3145 l -50.2201,3.5943 -80.8421,-0.4326 c -44.46318,-0.2378 -86.90529,-0.7886 -94.31581,-1.2238 z m 52.74725,-111.0684 c -10.73637,-1.2296 -27.82345,-3.9361 -37.97129,-6.0145 l -18.4506,-3.7788 -13.32814,-6.7012 -13.32815,-6.7013 -3.46337,-5.4469 -3.46337,-5.447 16.94332,-16.6009 16.94333,-16.6009 8.68387,-14.8434 c 4.7761,-8.1639 10.91349,-20.8415 13.63865,-28.1723 2.72514,-7.3308 6.33315,-21.5778 8.01777,-31.66 l 3.06299,-18.3312 -1.5701,-20.4264 -1.5701,-20.4264 4.31473,1.2604 c 2.37311,0.6932 17.41678,2.5661 33.43035,4.162 l 29.11558,2.9016 38.3992,-1.1067 38.3991,-1.1066 -0.1117,24.6783 -0.1117,24.6784 3.3544,13.4737 c 4.2785,17.1855 14.7266,40.4923 24.9152,55.5788 4.3791,6.4843 14.9523,18.6013 23.4958,26.9267 8.5436,8.3255 15.5338,16.2563 15.5338,17.6242 0,1.3679 -2.4804,5.3168 -5.5119,8.7754 l -5.512,6.2883 -13.8938,4.8261 c -7.6416,2.6544 -23.6263,6.5468 -35.5216,8.6499 l -21.6277,3.8237 -41.6459,0.9764 -41.64593,0.9763 z m 24.30097,-222.9031 c -37.7237,-2.6035 -78.01526,-8.6884 -112.56975,-17.0004 -16.16842,-3.8893 -41.52344,-11.4156 -56.3445,-16.7251 -30.55893,-10.9475 -64.81048,-26.9722 -92.03636,-43.0593 -10.19894,-6.0263 -29.99695,-19.4808 -43.99557,-29.8989 l -25.45204,-18.9421 -24.66737,-24.7401 -24.6674,-24.7402 -19.66171,-26.2621 c -10.81391,-14.4442 -25.10662,-35.9409 -31.76154,-47.7704 -19.05407,-33.8696 -36.63147,-72.8676 -47.23614,-104.8 -10.73505,-32.325 -20.03963,-71.88851 -26.2143,-111.46413 l -4.01325,-25.72249 -1.33811,-59.30315 -1.33808,-59.30315 2.92993,-31.338 c 6.24988,-66.84731 23.28175,-147.30032 44.49303,-210.17054 l 9.91805,-29.39713 19.22472,-39.72003 19.22469,-39.72005 14.85087,-21.68281 c 8.16794,-11.92553 23.41371,-30.9051 33.87943,-42.17682 19.0344,-20.50021 49.5981,-47.42585 51.58194,-45.44201 0.57913,0.5791 -1.17005,4.17483 -3.88706,7.99051 -9.20206,12.92312 -26.87755,50.80934 -33.46821,71.73686 -7.95621,25.26352 -15.07686,58.61567 -19.87482,93.09091 l -3.57981,25.72249 -1.48573,47.77033 -1.4857,47.77034 2.81977,40.02573 c 4.787,67.95034 15.10368,134.57046 29.68035,191.66169 2.86756,11.2311 9.01396,31.77864 13.65869,45.66119 l 8.44493,25.24097 -4.04852,7.82897 -4.04852,7.82897 -1.21506,15.13729 -1.21508,15.13729 3.006,12.53041 3.00598,12.53046 9.16299,14.0889 9.16296,14.0889 11.29712,8.0283 c 6.21343,4.4156 16.02617,9.6969 21.80613,11.7361 l 10.50899,3.7079 33.09347,3.5453 c 49.06631,5.2566 105.52678,8.3702 183.86719,10.1395 l 69.9317,1.5794 5.4723,26.7752 c 3.0097,14.7263 10.2499,41.2872 16.0892,59.0241 l 10.617,32.2489 13.5778,26.9474 c 7.4677,14.821 19.257,34.9902 26.1983,44.8205 l 12.6206,17.8731 18.2883,18.1112 18.2884,18.1111 16.478,10.8838 c 9.063,5.986 22.2799,13.7959 29.3709,17.3552 7.0911,3.5594 22.5246,9.6897 34.2967,13.6229 l 21.4038,7.1513 22.0478,2.8311 c 12.1263,1.5572 24.8038,3.3928 28.1723,4.0793 l 6.1244,1.248 -5.6043,2.1411 c -9.6016,3.6683 -44.4091,11.5579 -79.3905,17.995 -18.4524,3.3955 -49.8706,7.7754 -69.8182,9.7332 -19.9476,1.9577 -54.4579,4.0447 -76.6894,4.6377 l -40.4211,1.0781 z m 263.2241,-67.4524 c -10.2397,-1.8539 -28.0615,-6.5442 -39.6039,-10.4229 l -20.9863,-7.0522 -19.1791,-11.9538 -19.1792,-11.9539 -19.1635,-18.3087 -19.1636,-18.3088 -13.041,-19.7262 c -7.1726,-10.8494 -17.172,-27.9942 -22.2209,-38.0994 -17.6018,-35.2292 -29.0394,-70.2334 -38.9002,-119.0517 -3.5115,-17.3847 -6.9449,-34.0756 -7.6297,-37.0908 l -1.245,-5.4822 -10.2972,-5.2532 c -5.6634,-2.8892 -13.3443,-7.506 -17.0686,-10.2596 -3.7244,-2.7535 -9.4634,-9.074 -12.7534,-14.0455 -3.29,-4.9716 -7.24473,-13.7293 -8.78832,-19.46177 l -2.80652,-10.4226 2.85588,-11.90466 2.85591,-11.90464 8.38665,-7.36361 8.3867,-7.36359 6.6919,-1.46489 c 3.6805,-0.8057 8.188,-1.93472 10.0165,-2.50894 1.8285,-0.57423 7.6305,0.11538 12.8934,1.53257 l 9.5688,2.57663 8.2327,7.22836 8.2326,7.22837 5.2104,12.11183 5.2104,12.11184 8.6822,42.4132 c 9.8667,48.1994 20.8547,90.8223 29.8799,115.906 9.7957,27.225 23.8486,56.1248 36.3572,74.7684 l 11.5578,17.2267 15.9477,14.9182 15.9477,14.9183 17.1181,8.2037 17.1182,8.2036 18.4743,4.1102 18.4743,4.1101 30.7701,-1.5221 30.77,-1.522 21.5588,-4.8718 c 11.8573,-2.6795 30.6275,-8.5692 41.7115,-13.0881 l 20.1528,-8.2161 20.0329,-12.8506 20.0329,-12.8506 13.4801,-14.5601 13.4801,-14.5601 8.5542,-15.2964 8.5542,-15.2963 3.8002,-14.5899 c 2.0901,-8.0244 3.794,-17.941 3.7865,-22.0369 -0.01,-4.0959 -1.22,-11.8566 -2.6944,-17.2461 l -2.6807,-9.799 -11.5203,-11.1778 -11.5202,-11.1778 -14.5701,-3.9753 -14.57,-3.9753 -26.9474,-2.5198 c -14.821,-1.386 -35.7665,-3.1414 -46.5455,-3.901 -10.7789,-0.7596 -45.7444,-3.58 -77.7011,-6.2676 l -58.1031,-4.8865 -15.5664,-4.808 -15.5665,-4.808 -14.5219,-9.4733 -14.5218,-9.4733 -14.8568,-15.6729 c -8.1713,-8.6201 -19.3872,-22.37928 -24.9244,-30.57599 -19.9726,-29.56589 -42.758,-76.21928 -59.7227,-122.28351 -3.9697,-10.77894 -16.0826,-47.63023 -26.9176,-81.89173 l -19.6998,-62.29364 -6.2386,-12.31135 -6.2387,-12.31134 -13.0645,-12.75505 -13.06448,-12.75502 -14.20083,-5.7309 -14.20079,-5.73087 -115.42063,-0.70255 -115.42065,-0.70254 -1.53414,-12.77114 c -0.8438,-7.02413 -1.54374,-16.92611 -1.55545,-22.00441 l -0.0213,-9.23327 6.73684,1.88398 6.73684,1.88399 95.54068,-0.26878 95.54067,-0.26879 14.69856,-3.07301 c 8.08421,-1.69016 18.00574,-4.72973 22.04785,-6.7546 4.0421,-2.0249 9.93694,-6.03305 13.09965,-8.90701 3.16269,-2.87399 7.89362,-9.40515 10.51315,-14.51371 l 4.76283,-9.28829 1.4136,-15.20932 1.4137,-15.20931 -2.8511,-18.37321 -2.8509,-18.3732 -8.51039,-25.45365 c -4.68069,-13.99953 -12.57823,-33.2914 -17.55007,-42.87082 l -9.03971,-17.41716 -17.24823,-17.39347 -17.24823,-17.3935 -18.3732,-8.75746 C 903.65551,376.67245 888.77321,370.92333 880.689,368.71323 l -14.69857,-4.01834 -34.29665,-1.37319 -34.29665,-1.37322 -15.24048,3.91394 -15.24045,3.91393 -8.3747,5.48977 -8.37473,5.48974 -7.41513,11.11491 -7.41513,11.11488 -6.50368,18.37321 c -7.71057,21.78266 -14.51363,53.60341 -18.33097,85.74163 -1.52037,12.8 -3.40752,46.42296 -4.19367,74.7177 l -1.42934,51.44498 2.88903,37.97129 c 5.31316,69.83227 16.43963,135.71016 33.20732,196.61498 4.54077,16.49334 9.01411,31.91708 9.94076,34.27497 l 1.6848,4.28709 h -14.87505 -14.87507 l -11.3418,3.85065 c -6.238,2.11785 -11.61138,3.49584 -11.94082,3.0622 -0.32945,-0.43365 -4.06693,-12.91477 -8.30555,-27.73582 C 673.21472,822.48125 664.26024,774.2675 657.8499,705.68451 l -3.76377,-40.26767 v -50.56047 -50.56044 l 2.60405,-26.7604 c 3.4461,-35.41382 12.67016,-80.90303 22.14187,-109.19444 4.21773,-12.59814 11.52796,-30.62242 16.24498,-40.054 4.71701,-9.43158 13.27059,-23.76268 19.00801,-31.84689 5.73739,-8.08421 16.1108,-20.00661 23.05203,-26.49422 l 12.62041,-11.79564 16.47055,-7.80244 16.47055,-7.80244 31.84689,0.0478 31.84689,0.0478 16.93681,5.62605 c 19.61016,6.51406 37.25601,15.08717 52.88137,25.69203 6.06316,4.11504 18.59542,14.71506 27.84947,23.55561 25.87542,24.71923 49.53465,56.45057 73.17479,98.14072 13.4113,23.65131 39.4905,83.3498 71.7257,164.18892 18.5238,46.45398 41.3924,102.10008 50.8191,123.65797 20.7671,47.49246 45.3868,97.08628 58.5171,117.87674 5.336,8.44883 13.4857,18.68391 18.1105,22.74458 l 8.4089,7.38304 9.2187,2.32867 9.2188,2.32865 46.5455,1.5526 c 25.6,0.85392 68.714,2.61174 95.8089,3.90627 l 49.2635,2.35371 8.3059,2.78062 c 9.6559,3.23256 21.061,11.30214 31.6856,22.41884 l 7.5095,7.85739 10.7556,22.04785 10.7555,22.04784 7.274,24.72174 c 4.0007,13.5969 10.1568,37.5749 13.6802,53.2844 l 6.4061,28.5627 1.8025,28.128 1.8025,28.1279 -1.6962,26.3771 -1.6963,26.3772 -6.2155,19.598 -6.2155,19.5981 -8.8049,14.6218 c -4.8426,8.042 -12.7683,19.4587 -17.6125,25.3704 -4.8442,5.9117 -14.9766,15.6029 -22.5164,21.536 -7.5398,5.933 -21.9767,15.0732 -32.082,20.3115 -10.1053,5.2382 -27.739,12.4607 -39.186,16.0499 l -20.8128,6.5259 -23.2829,3.5099 -23.2829,3.5099 -23.2727,-0.2053 -23.2728,-0.2053 z m -4.144,-83.0485 c -8.4768,-1.9337 -21.6285,-6.3617 -29.226,-9.8399 -7.5975,-3.4783 -18.6283,-10.2694 -24.5129,-15.0913 -11.7781,-9.6514 -26.1954,-27.9614 -35.4283,-44.9946 -7.1078,-13.1124 -14.7128,-31.8468 -12.928,-31.8468 0.6964,0 8.7072,3.7472 17.8018,8.3271 19.1132,9.6253 50.5966,19.5789 75.137,23.755 l 17.0772,2.906 27.0185,-1.4641 27.0185,-1.464 24.4976,-6.356 c 27.2241,-7.0635 55.7838,-18.6547 76.4272,-31.0187 7.4924,-4.4875 18.4408,-12.8031 24.3297,-18.4791 l 10.7072,-10.3201 v -4.7616 -4.7615 l 4.6893,1.2262 c 2.5791,0.6745 7.1452,3.8405 10.1469,7.0357 l 5.4577,5.8094 -1.3401,14.7791 -1.3402,14.7791 -7.5948,16.2298 -7.5948,16.2298 -15.4651,15.0084 -15.4652,15.0084 -13.7604,8.1645 c -7.5682,4.4905 -21.2851,11.2268 -30.4819,14.9695 -9.1968,3.7427 -26.9839,9.2142 -39.5268,12.1589 l -22.8053,5.354 -23.7132,1.0863 -23.7132,1.0863 z M 885.58853,1044.4608 c -5.38947,-0.4199 -30.7445,-1.9721 -56.3445,-3.4494 -52.96821,-3.0565 -78.03561,-5.8123 -92.69954,-10.191 l -10.19041,-3.0429 -12.62534,-12.3002 -12.6253,-12.3003 -2.67203,-9.799 c -1.46961,-5.38947 -2.65395,-13.65741 -2.63188,-18.3732 l 0.0402,-8.57416 4.64046,-10.2205 4.64043,-10.22053 5.71726,-3.72988 c 3.14446,-2.05143 11.03869,-4.91709 17.54273,-6.36813 l 11.82551,-2.63827 120.46158,2.78376 c 66.25385,1.53105 120.68543,2.97293 120.95907,3.20416 0.27361,0.23126 -2.84151,6.99464 -6.92249,15.02978 l -7.41996,14.60937 0.85747,19.59808 0.85744,19.59812 6.86073,13.4737 c 3.77341,7.4105 9.17521,15.954 12.00402,18.9856 l 5.14327,5.512 -48.80981,-0.4118 c -26.84544,-0.2265 -53.21942,-0.7554 -58.60889,-1.1753 z m 648.15987,-61.49428 c -8.7579,-24.61931 -20.8829,-50.41828 -29.758,-63.31782 l -7.8758,-11.44711 11.981,1.78786 c 6.5895,0.9833 15.2882,3.168 19.3303,4.85486 l 7.3492,3.067 9.0236,10.00014 9.0236,10.00015 2.5991,9.36 c 1.4295,5.148 2.6053,12.22707 2.6128,15.73128 0.01,3.50419 -1.2787,10.11854 -2.8583,14.69857 -2.9091,8.43506 -11.5822,21.80096 -14.1465,21.80096 -0.7692,0 -4.0456,-7.44115 -7.281,-16.53589 z"/>
  <path id="texto" fill="#fff" d="m 663.11696,1762.9123 12.54569,-4.4042 q 0.49852,0.028 1.44016,0.1799 1.03858,0.2077 1.71711,0.5953 l 1.26018,0.7201 q 0.38773,0.2214 0.47087,1.4262 0.13866,1.1078 -0.47069,2.1741 l -23.3728,40.9069 q -0.49848,0.8724 -1.6201,1.2602 -1.02472,0.4431 -1.3155,0.277 -0.87244,-0.4985 -0.26328,-3.365 1.35692,-2.8249 2.24276,-11.5766 0.94122,-8.8487 -0.43018,-19.2759 -1.21907,-10.4687 -6.60627,-20.6187 -5.29023,-10.0946 -15.66235,-16.0209 l -0.38775,-0.2214 q -10.75986,-6.1479 -18.91612,-6.9506 -8.05932,-0.7474 -14.99677,3.5179 -6.88204,4.1685 -13.57001,12.9482 -6.63258,8.6827 -14.99582,23.32 l -28.80059,50.4065 q -8.08632,14.1526 -11.94932,24.2893 -3.76607,10.192 -3.64108,17.8497 0.27731,7.6161 4.69497,13.6119 4.56998,5.9543 13.77887,11.2159 l 0.1661,0.6093 q 12.69858,7.2555 26.3522,5.4131 13.709,-1.9393 24.81448,-8.3235 11.25778,-6.4258 20.20298,-13.53 9.00057,-7.2012 9.38832,-6.9797 1.26015,0.7201 -1.89683,6.2454 l -26.08669,45.6567 q -0.66462,1.1632 -1.32929,1.4263 -0.62312,0.4155 -0.92777,0.4986 -0.19378,-0.1107 -0.44317,-1.0247 -0.15237,-0.8586 -0.44316,-1.0247 0.0551,-4.5974 0.0826,-9.5964 0.0828,-5.0959 -3.4e-4,-7.2007 -3.47568,1.3572 -12.51816,1.2053 -9.04248,-0.1519 -19.81599,-2.4501 -10.77354,-2.2982 -19.59468,-7.3383 -17.83617,-10.191 -28.3333,-24.675 -10.34482,-14.5256 -13.47518,-31.1011 -3.07494,-16.6723 0.16463,-33.5942 3.39186,-16.9634 12.19819,-32.3762 8.75094,-15.3158 21.64251,-26.8515 12.98848,-11.4802 28.91291,-17.297 15.92445,-5.8167 33.69097,-4.2805 17.91882,1.4947 35.75499,11.6857 l 0.77548,0.4431 q 8.23955,4.7078 13.73727,10.1635 5.65008,5.4141 8.59982,9.9283 2.94975,4.5142 4.73627,8.3637 1.78653,3.8496 1.88347,3.9049 z m 10.30428,66.1873 42.41976,9.7178 -41.44432,103.0638 5.90415,2.3742 -1.37454,3.4182 -44.95443,-18.0772 1.37453,-3.4182 6.31848,2.5408 38.07046,-94.6737 -7.68863,-1.5275 z m 118.3539,40.0184 q -18.97752,-5.0934 -27.25413,25.7451 l -10.0998,37.6316 q -4.91969,18.3305 -3.11639,28.4088 1.83222,9.9704 12.39927,12.8065 10.67485,2.8649 17.36094,-4.8193 6.79392,-7.6553 11.88722,-26.6328 l 9.95509,-37.0924 q 8.27664,-30.8385 -11.1322,-36.0475 z m -62.36646,18.7489 q 7.72679,-28.7897 19.27663,-46.8436 11.57877,-18.1616 27.08049,-25.0982 15.50174,-6.9365 34.76074,-2.4612 39.57243,10.6207 53.65419,1.2223 2.21718,-1.37 2.64849,-1.2542 1.40175,0.3762 0.44676,3.9345 -1.12863,4.2052 -5.23717,10.0382 -4.10855,5.8329 -10.2,10.4401 -6.06249,4.4994 -12.81636,5.1142 -4.74715,0.4598 -20.66351,-3.1183 -15.88741,-3.686 -28.24825,-4.576 -12.36085,-0.8901 -24.76176,5.2604 -12.26414,6.0715 -19.97939,23.1894 -2.40432,5.9436 -4.63779,12.9733 -2.0967,6.9509 -3.05169,10.5092 8.55919,-14.2327 23.50594,-20.3935 15.05457,-6.1318 32.52251,-1.4436 12.72357,3.4148 21.97524,10.2904 9.3595,6.9045 14.5871,16.2835 5.33543,9.4079 6.48897,21.0457 1.15355,11.6378 -2.26127,24.3613 -3.64635,13.5862 -11.73698,22.6274 -7.95386,8.9623 -18.15858,13.3903 -10.09689,4.4569 -20.59061,5.224 -10.46476,0.6592 -19.30656,-1.7138 l -0.86261,-0.2315 q -14.60655,-4.1514 -25.05464,-13.8911 -10.34024,-9.7109 -13.67608,-28.292 -3.228,-18.5522 4.29619,-46.5871 z m 234.46641,56.5774 -63.53822,-7.431 -4.14994,35.4838 q -1.78965,15.3024 0.72577,21.6664 2.52839,6.2531 9.2925,7.0442 l 1.3825,-0.2879 q 14.82578,1.0595 26.00002,-6.064 11.28514,-7.1104 17.08101,-20.1458 1.65486,-2.6166 3.53993,-2.3961 1.77419,0.2075 1.44999,2.9797 l -0.2075,1.7741 q -5.79586,13.0355 -18.48232,21.5557 -12.56259,8.4223 -29.86096,6.3992 -15.19151,-1.7767 -25.20966,-11.2662 -9.90725,-9.4766 -13.8824,-23.5423 -3.97516,-14.0658 -2.23737,-28.9246 1.75075,-14.9698 8.87725,-27.8496 7.12652,-12.8798 19.07697,-19.9124 11.95045,-7.0326 27.03108,-5.2689 16.52216,1.9323 26.16873,11.7156 9.64658,9.7833 13.09192,21.6514 3.5692,11.7702 3.8507,22.8187 z m -60.67219,-31.937 -2.23058,19.0725 27.27821,3.1903 2.60666,-22.2883 q 0.98562,-8.4274 -0.88328,-13.5917 -1.8689,-5.1644 -9.74189,-6.0851 -6.76411,-0.7911 -10.30404,1.605 -3.42905,2.409 -4.69805,6.5319 -1.15813,4.1359 -2.02703,11.5654 z m 88.487,-13.485 75.3523,-0.9905 q 2.2327,-0.029 3.703,1.4028 1.4703,1.4321 1.4982,3.5532 l 0.3316,25.229 q 0.01,0.7815 -0.9636,3.139 -0.9739,2.3575 -1.3088,2.3619 l -0.031,-2.3443 q -0.5169,-13.8381 -8.6616,-21.8817 -8.1447,-8.0435 -22.3221,-7.8572 l -6.9212,0.091 1.3705,104.2653 7.3678,-0.097 0.049,3.6839 -48.00225,0.6309 -0.0485,-3.6839 6.80962,-0.089 -1.37057,-104.2653 -6.8096,0.089 z m 125.1219,68.5574 q 2.0358,6.4786 5.4953,11.8558 3.4771,4.6982 8.5951,9.8428 4.899,4.3862 10.9231,7.1491 2.6028,0.8751 5.4599,1.1509 2.857,0.2758 5.9528,-0.1582 2.4323,-0.3411 3.5224,-0.6066 1.0901,-0.2656 3.2083,-1.239 3.5556,-1.175 5.4237,-3.1279 1.8371,-2.1741 3.1235,-5.0601 0.2232,-0.8204 0.5279,-2.6669 0.3048,-1.8465 0.01,-3.9472 -0.1239,-0.8845 -0.3585,-1.7535 -0.124,-0.8845 -0.6748,-1.5964 l -1.9489,-3.447 -2.6453,-2.7856 -2.979,-1.9498 -3.6269,-1.7461 -4.0846,-1.7948 -5.5684,-1.9248 -6.9727,-2.2917 -10.8827,-4.4491 q -3.9275,-1.4785 -9.0982,-4.5865 -1.4022,-1.1562 -3.3086,-2.6927 -1.8114,-1.6625 -3.9059,-3.7362 l -2.0615,-2.6421 -3.1279,-5.4236 q -0.3141,-0.6324 -0.8318,-1.9126 -0.4227,-1.4063 -0.7833,-2.3704 l -0.9497,-5.1653 q -0.6666,-4.7542 -0.6584,-7.9119 0.1031,-3.2838 1.0289,-7.1338 1.1685,-6.1388 5.7469,-12.0793 4.3242,-5.3411 11.059,-8.7656 3.1774,-1.4601 6.8434,-2.6506 3.6506,-1.301 7.2991,-1.8125 l 5.8907,-0.6005 q 1.3268,-0.186 2.4479,-0.2305 1.1056,-0.1551 2.3683,0.01 l 3.6465,0.2779 3.6775,0.499 2.9986,0.4814 2.4613,0.6695 1.9725,0.3998 1.6894,-0.012 q 2.4324,-0.3411 3.383,-1.6017 0.2386,-0.7098 0.3843,-2.0831 0.2408,-1.4993 0.2583,-2.1782 l 5.6076,-1.0117 5.0071,35.7113 -4.0907,0.5736 q -0.7193,-2.7176 -1.8187,-4.9308 -0.9889,-2.2288 -2.7828,-4.5702 -2.8778,-4.4441 -7.7767,-8.8303 -4.1115,-3.5947 -9.649,-5.2984 -2.5873,-0.7646 -5.1127,-1.0869 -2.5253,-0.3223 -5.0683,0.034 -2.2112,0.31 -3.0802,0.5446 -0.869,0.2347 -2.8611,1.303 -2.671,1.051 -4.7758,2.9244 -2.1047,1.8734 -2.9489,4.6974 l -0.2045,5.7781 q 0.403,2.8746 1.361,4.8822 0.9423,1.8971 1.7297,2.6886 0.8825,0.6654 2.2537,1.6005 l 7.3643,3.4769 13.5826,4.4086 q 3.3923,0.8772 7.0988,2.3868 3.4388,1.2088 7.2382,3.3817 5.7565,2.4622 10.2618,6.4526 1.9219,1.6471 3.7312,4.099 1.9199,2.4364 3.3646,5.5032 l 2.2744,5.7688 1.4343,7.0139 q 1.1472,8.1815 -0.6092,15.7556 -1.0828,3.5338 -2.7494,6.9241 -1.556,3.3747 -3.853,6.2897 -4.2931,5.5623 -11.8019,9.0953 -3.9358,1.6791 -7.7124,2.8851 -3.6661,1.1904 -7.5357,1.733 l -1.8796,0.2635 q -2.764,0.3876 -4.6105,0.083 l -6.7246,-0.5226 -2.5409,-0.4329 -2.3683,-0.01 -4.626,-0.028 -4.624,-0.8172 q -2.4323,0.3411 -3.2879,1.4756 -0.8555,1.1346 -1.401,4.4804 l -5.7492,0.8061 -5.7512,-41.0182 z m 90.17,-85.5995 40.0631,-16.9946 26.8422,107.7927 6.175,-1.5377 0.8903,3.5751 -47.0171,11.708 -0.8903,-3.575 6.6084,-1.6456 -24.657,-99.0177 -7.1244,3.2698 z m 173.866,56.2212 -36.8225,-97.5564 -26.9481,10.1716 36.8225,97.5563 6.0581,-2.2866 1.1039,2.9246 -44.9136,16.9525 -1.1038,-2.9246 6.7892,-2.5626 -36.8225,-97.5563 -8.1471,3.0751 -14.863,-39.3776 q 2.6373,5.0903 8.4578,13.8718 5.8856,8.6377 12.0604,12.0348 8.2935,4.2682 19.1563,0.1681 l 80.4266,-30.3569 1.301,3.4469 -6.3715,2.4049 36.8225,97.5563 6.3715,-2.4049 1.1038,2.9246 -44.9135,16.9526 -1.1038,-2.9247 z m 66.5277,-152.9285 q 14.5485,-8.0656 29.056,-6.5346 14.5076,1.531 26.3302,10.4225 11.8225,8.8915 19.1845,22.1707 7.2536,13.084 8.2603,27.3335 1.1043,14.1954 -5.5,26.92 -6.5066,12.6706 -21.2505,20.8445 -14.4509,8.0115 -28.8502,6.6757 -14.3016,-1.3898 -25.8642,-10.0425 -11.5625,-8.6527 -18.8162,-21.7367 -7.2536,-13.0839 -8.5203,-27.5723 -1.2232,-14.64 5.1752,-27.5058 6.3442,-12.9635 20.7952,-20.975 z m 56.3879,60.2652 -19.1085,-34.4674 q -6.7665,-12.2052 -12.3239,-18.3151 -5.4597,-6.1641 -10.9458,-7.0799 -5.4861,-0.9157 -12.2234,2.8194 -7.1278,3.9516 -9.4965,9.3497 -2.3253,5.2462 -0.283,13.3049 2.14,8.0046 8.8523,20.1121 l 19.1085,34.4675 q 8.1739,14.7438 15.9665,19.3593 7.836,4.4637 18.5766,-1.4907 7.0301,-3.8975 9.1601,-9.0356 2.0758,-5.2356 0.1842,-12.1014 -1.8915,-6.8657 -7.4671,-16.9228 z"/>
</svg>
