<svg xmlns="http://www.w3.org/2000/svg" width="256" height="256" viewBox="0 0 256 256" role="img" aria-label="toT logo" id="tot-symbols">
  <g id="background" transform="translate(-25)">
    <rect id="background-border" x="25" y="0" width="256" height="256" rx="50" ry="50" fill="#ffffdb" stroke="none"/>
    <rect id="background-fill" x="33" y="8" width="240" height="240" rx="40.816326" ry="40.816326" fill="#ffac89" stroke="none"/>
  </g>
  <g id="book" transform="matrix(0.76294773,0,0,1.261505,-5.806747,-25.281167)">
    <path id="book-pages" d="M 85.606754,131.46582 83,136 74.947363,149.61048 64,150.19037 49.31745,174.71926 131,172.51677 l 42.5,23.28995 37,-21.59518 93.17421,-0.25027 L 287,151.45011 l -0.49502,-1.1236 -9.0055,-0.17126 L 267.83333,136 l -2.45617,-5.16493 -5.32507,0.15304 L 238.5,130.2922 198.8638,147.60853 175.8,173.9 160.46769,154.5 115.5,131.04783 l -26.483739,0.6375 z" fill="#ffffdb"/>
    <path id="book-lines" d="m 169.24477,195.08544 -4.25524,-0.72129 -2.87681,-2.75616 -2.87681,-2.75616 -8.36796,-2.93231 c -8.90129,-3.11921 -16.8318,-5.05107 -31.36795,-7.64118 l -9,-1.60366 -17,-0.056 -17,-0.056 -9,1.30792 c -4.95,0.71936 -11.475,1.89602 -14.5,2.6148 -6.585765,1.56488 -14,2.69555 -14,2.13501 0,-0.49575 14.110546,-27.59102 15.5,-29.76332 l 1,-1.56342 4.25,-0.55165 4.25,-0.55165 v 0.83014 c 0,0.45658 -2.025,4.89901 -4.5,9.87207 -2.475,4.97307 -4.5,9.53701 -4.5,10.1421 v 1.10016 l 1.75,-0.51164 c 5.332798,-1.55911 15.345123,-2.74593 27.75,-3.28937 l 14,-0.61332 10.5,1.22233 c 5.775,0.67227 15.675,2.28055 22,3.57393 l 11.5,2.35162 9.69371,3.43431 9.69371,3.43432 4.72774,3.13152 4.72773,3.13152 h 4.25183 4.25183 l 2.82672,-2.35143 c 1.5547,-1.29329 3.72673,-2.82007 4.82673,-3.39285 1.1,-0.57279 6.725,-2.61706 12.5,-4.54283 l 10.5,-3.50141 14.5,-2.85163 14.5,-2.85163 20.5,0.11471 20.5,0.1147 7.5,1.52913 c 4.125,0.84101 7.85746,1.31115 8.29437,1.04474 l 0.79436,-0.48437 -2.74462,-4.66357 C 291.37224,161.11387 287,152.35436 287,151.45011 c 0,-0.30783 2.08682,-0.42254 4.63738,-0.2549 l 4.63738,0.30479 7.96043,15.31886 c 4.37823,8.42537 7.75991,15.51937 7.51484,15.76444 -0.24507,0.24507 -6.02658,-0.68338 -12.84781,-2.06323 L 286.5,178.01125 l -12.88962,-1.15572 -12.88962,-1.15573 -14.61038,1.17925 -14.61038,1.17925 -11.18412,2.36679 c -6.15127,1.30173 -14.92627,3.59439 -19.5,5.0948 L 192.5,188.2479 190,190.50176 c -1.375,1.23963 -3.4,2.70704 -4.5,3.26092 -1.1,0.55388 -4.25,1.24037 -7,1.52554 l -5,0.5185 z m -4.82851,-19.12627 c -2.24606,-1.57742 -8.09606,-4.85112 -13,-7.27488 l -8.91626,-4.40684 -11,-3.54417 -11,-3.54416 -9.5,-1.34456 -9.5,-1.34456 -15.75,0.0295 C 77.0875,154.54569 70,154.41392 70,154.23665 c 0,-0.52309 6.922211,-13.1883 8.645998,-15.81913 L 80.23002,136 H 81.61501 83 v 1.01987 c 0,0.56093 -1.144456,2.83281 -2.543235,5.04862 -1.398779,2.21581 -2.943165,5.08064 -3.43197,6.36629 l -0.888735,2.33755 16.68197,0.48647 15.3085,0.48647 11.07312,2.13395 c 11.58756,2.23309 24.16886,7.05488 31.78747,11.36197 5.7148,3.2308 16.47378,11.07751 17.52824,12.78366 0.33147,0.53633 0.46362,0.93627 0.29366,0.88875 -0.16996,-0.0475 -2.1467,-1.37701 -4.39276,-2.95443 z M 185.5,175.42802 c 1.65,-1.448 3.91144,-3.39583 5.02542,-4.3285 3.66248,-3.06636 13.05595,-8.03208 22.06265,-11.66309 l 8.857,-3.57065 12.91108,-2.43289 L 247.26723,151 h 13.86638 C 268.76013,151 275,150.76217 275,150.47148 c 0,-0.29068 -1.45927,-3.32818 -3.24282,-6.75 -1.78355,-3.42181 -3.39605,-6.55898 -3.58333,-6.97148 L 267.83333,136 h 1.90608 1.90608 l 2.31862,4.75 c 1.27525,2.6125 3.09596,5.65 4.04602,6.75 0.95007,1.1 2.02766,3.26794 2.39466,4.81765 l 0.66727,2.81764 -12.78603,-0.65093 -12.78603,-0.65093 -14,2.04236 -14,2.04235 -9.07508,2.96931 c -9.8542,3.22422 -20.4887,8.06964 -29.92492,13.63474 l -6,3.53856 z m -11.5,-1.3985 c 0,-0.53376 -4.1625,-5.3169 -9.25,-10.62919 l -9.25,-9.65871 -5.4387,-3.4791 c -2.99129,-1.91351 -8.84129,-5.17828 -13,-7.25505 l -7.5613,-3.77594 -9,-2.58535 c -4.95,-1.42195 -11.025,-3.02363 -13.5,-3.5593 -2.475,-0.53567 -7.533841,-1.07016 -11.241869,-1.18775 l -6.74187,-0.2138 1.208902,-1.59266 c 0.664896,-0.87597 1.275592,-1.71952 1.357101,-1.87457 0.08151,-0.15504 5.496346,0.41822 12.032966,1.27392 l 11.88477,1.55581 11,3.7515 11,3.75151 8.3912,4.97458 8.3912,4.97458 6.18529,6 6.18529,6 4.21077,6.25 c 2.31592,3.4375 4.5315,6.24107 4.92351,6.23016 0.39201,-0.0109 2.03693,-2.25043 3.65537,-4.97671 3.48143,-5.86445 11.57074,-14.35934 19.42117,-20.39492 3.09991,-2.38327 8.47499,-5.76491 11.94461,-7.51476 3.46963,-1.74984 11.11963,-4.67104 17,-6.49155 L 238.5,130.2922 l 10.37733,-1.21878 10.37732,-1.21877 1.11432,1.11432 1.11431,1.11431 -1.49164,0.94305 -1.49164,0.94304 -5,0.0327 c -10.55543,0.069 -29.21892,5.42232 -42,12.04707 -4.4,2.28063 -10.46005,5.99079 -13.46678,8.24481 -5.80082,4.34862 -15.66316,14.04327 -19.78901,19.45254 -2.44824,3.2098 -4.24421,4.1759 -4.24421,2.28305 z" fill="#1c3e60"/>
  </g>
  <g id="clock" transform="translate(-47,-38.182012)">
    <circle id="clock-border" cx="175" cy="127" r="42" fill="#1c3e60"/>
    <circle id="clock-face" cx="175" cy="127" r="35" fill="#ffffdb"/>
    <g id="clock-ticks" fill="none" stroke="#1c3e60" stroke-width="2.4" stroke-linecap="round" stroke-linejoin="round">
      <path id="tick-1" d="m 189.70718,99.925956 1.38586,0.800104 -1.80022,3.11798 -1.38586,-0.8001 z"/>
      <path id="tick-2" d="m 201.27365,110.90696 0.80013,1.38588 -3.11796,1.80019 -0.80012,-1.38588 z"/>
      <path id="tick-3" d="m 202.19992,126.19992 h 3.60015 v 1.6002 h -3.60015 z"/>
      <path id="tick-4" d="m 202.0738,141.70708 -0.80014,1.38588 -3.11799,-1.80014 0.80014,-1.38586 z"/>
      <path id="tick-5" d="m 191.09304,153.27364 -1.38589,0.80014 -1.80019,-3.11796 1.38588,-0.80012 z"/>
      <path id="tick-6" d="m 174.19993,154.19992 h 1.60014 v 3.60016 h -1.60014 z"/>
      <path id="tick-7" d="m 160.29284,154.07383 -1.38588,-0.80015 1.80013,-3.11798 1.38586,0.80014 z"/>
      <path id="tick-8" d="m 148.72636,143.09304 -0.80014,-1.38589 3.11795,-1.80019 0.80012,1.38587 z"/>
      <path id="tick-9" d="m 144.19992,126.19992 h 3.60015 v 1.6002 h -3.60015 z"/>
      <path id="tick-10" d="m 147.92619,112.29285 0.80016,-1.38589 3.11798,1.80012 -0.80014,1.38586 z"/>
      <path id="tick-11" d="m 158.90696,100.72635 1.3859,-0.800126 1.80019,3.117926 -1.38587,0.80012 z"/>
      <path id="tick-12" d="m 174.19993,96.199926 h 1.60014 v 3.600152 h -1.60014 z"/>
    </g>
    <g id="clock-hands" fill="#1c3e60" stroke="none">
      <rect id="minute-hand" x="173" y="104" width="4" height="25" rx="2" ry="2"/>
      <rect id="hour-hand" x="213.05444" y="20.485226" width="19" height="4" rx="2" ry="2" transform="rotate(30)"/>
      <circle id="hand-center" cx="175" cy="127" r="4"/>
    </g>
  </g>
</svg>
